<svg xmlns="http://www.w3.org/2000/svg" viewBox="0 0 47.6 32"><defs><style>.cls-1{fill:#ccc;}</style></defs><title>清空选项</title><g id="图层_2" data-name="图层 2"><g id="图层_1-2" data-name="图层 1"><path class="cls-1" d="M3.2,8.1A12.3,12.3,0,0,0,.4,6.3L1.5,4.9A22.9,22.9,0,0,1,4.3,6.6ZM1,14c.6-1.2,1.6-3.2,2.3-5l1.5,1.1c-.6,1.7-1.4,3.5-2.1,5ZM3.7,3.9A18,18,0,0,0,1.2,2.2L2.3.8A19.6,19.6,0,0,1,4.9,2.5ZM15.3,5.6V6.9H4.6V5.6H8.9V4.9H5.6V3.6H8.9V3H5.2V1.6H8.9V.5h1.9V1.6h3.9V3H10.8v.6h3.4V4.9H10.8v.7Zm-1.2,8c0,.9-.2,1.3-.8,1.6a5.2,5.2,0,0,1-2.4.3,10.9,10.9,0,0,0-.5-1.7H12a.3.3,0,0,0,.3-.3v-.5H7.5v2.4H5.7v-8h8.4ZM7.5,8.9v.8h4.8V8.9Zm4.8,2.9V11H7.5v.8Z" transform="translate(-0.4)"/><path class="cls-1" d="M31,2.3V5.9H29V4.1H18.9V6.2H17V2.3h6L22.4.9,24.5.4a15.4,15.4,0,0,1,.8,1.9ZM25,13.2h5.9v1.7H17.2V13.2h5.7V10.1H19.1V8.5l-.9.4L17.1,7.1a16.5,16.5,0,0,0,5-2.4l1.3,1.2a28,28,0,0,1-4.1,2.5H29v1.7H25Zm4.6-4.6A54.6,54.6,0,0,0,24.7,6l1.2-1.3a46.6,46.6,0,0,1,5,2.4Z" transform="translate(-0.4)"/><path class="cls-1" d="M4.4,28a9.6,9.6,0,0,1,1.5.9,8,8,0,0,0,4,.7,34.3,34.3,0,0,0,5.6-.4,7.3,7.3,0,0,0-.5,2l-5.1.2a7.6,7.6,0,0,1-4.3-.9c-.6-.3-1.1-.8-1.5-.8s-1.4.9-2.3,1.9L.5,30l2-1.5V24.4H.8V22.7H4.4ZM3.1,20.7A11.7,11.7,0,0,0,.7,18l1.5-1a11.8,11.8,0,0,1,2.5,2.5Zm6.5,2.9c-.3,2.3-1,4.1-3.7,5.2a5.7,5.7,0,0,0-1.1-1.6,3.9,3.9,0,0,0,2.9-3.6H5.1V22H9.4V20.1h-2a8.6,8.6,0,0,1-1,1.6,6.2,6.2,0,0,0-1.6-1,8.8,8.8,0,0,0,2-3.7l1.8.4c-.1.4-.3.8-.4,1.1H9.4V16.6h1.9v1.9h3.3v1.6H11.3V22h4v1.6H12.5v2.8c0,.5.1.5.3.5h.7c.3,0,.3-.2.4-1.6a3.9,3.9,0,0,0,1.6.7c-.1,2.1-.6,2.7-1.8,2.7H12.5c-1.5,0-1.8-.6-1.8-2.3V23.6Z" transform="translate(-0.4)"/><path class="cls-1" d="M22.2,26.9l-5.4,1.9-.5-2.1,2.1-.5V20H16.6V18.2h5.3V20H20.3v5.7l1.7-.4Zm5.3-1.3c0,2.2-1,4.5-5.5,5.9a5.3,5.3,0,0,0-1.2-1.4c4.3-1.1,4.8-2.9,4.8-4.5V22.4h1.9Zm-2.6-5.5c.1-.4.3-.8.4-1.3H22.1V17.1h9.3v1.7H27.5l-.6,1.3h3.7v7.4h-2V21.7H24.5v5.9H22.6V20.1Zm3.2,7.7a19.3,19.3,0,0,1,3.5,2.3l-1.3,1.3A23.6,23.6,0,0,0,27,28.9Z" transform="translate(-0.4)"/><rect class="cls-1" x="39.6" width="8" height="32"/></g></g></svg>