<svg xmlns="http://www.w3.org/2000/svg" viewBox="0 0 140.6 40"><defs><style>.cls-1{fill:#fff;}</style></defs><title>开始报名</title><g id="图层_2" data-name="图层 2"><g id="图层_1-2" data-name="图层 1"><path class="cls-1" d="M70.9,21.5H66v9.7H63V21.5H57.3a12.4,12.4,0,0,1-5.9,9.8,11.5,11.5,0,0,0-2.3-2.1,10.2,10.2,0,0,0,5.2-7.7H49.2V18.7h5.4V12.9H49.9V10.2H70.2v2.7H66v5.8h4.9ZM63,18.7V12.9H57.5v5.8Z"/><path class="cls-1" d="M81.4,13.7a35.2,35.2,0,0,1-1.7,10.4c.8.9,1.6,1.7,2.1,2.4l-1.7,2.4a19.6,19.6,0,0,0-1.6-2.1,12.4,12.4,0,0,1-4.1,4.4,9.1,9.1,0,0,0-1.7-2.3,8.9,8.9,0,0,0,3.8-4.1q-1.6-1.7-3.3-3c.4-1.5.9-3.5,1.3-5.6H72.9V13.5H75c.2-1.5.4-3.1.5-4.6l2.7.2-.6,4.4h2.2Zm-4.3,2.5c-.3,1.6-.7,3.3-1,4.7l1.4,1.3a26.6,26.6,0,0,0,1.2-6Zm16,4.1a10.4,10.4,0,0,0-.6-1.6c-8,.7-9.2.8-10.1,1.1a22.4,22.4,0,0,0-1-2.6c.6-.2,1-.7,1.5-1.5a36,36,0,0,0,3.4-6.9l2.9.8a41.9,41.9,0,0,1-3.7,7l5.7-.4a29,29,0,0,0-1.9-2.9l2.3-1.1a26.3,26.3,0,0,1,3.9,6.7Zm-10.3.9H93.9v10H91.2v-1H85.4v1H82.8Zm2.6,2.5v4h5.8v-4Z"/><path class="cls-1" d="M105.4,21.7l-2.5.7V28c0,1.5-.3,2.2-1.2,2.7a10.8,10.8,0,0,1-4.1.5,10.1,10.1,0,0,0-.9-2.8h2.7c.4,0,.6-.1.6-.5V23.2l-2.8.6-.6-2.9,3.4-.7V16.1H96.9V13.4H100V8.8h2.9v4.6h2.3v2.7h-2.3v3.3l2.1-.5Zm13.2-3.3a19.6,19.6,0,0,1-3,8,12,12,0,0,0,3.7,2.3,11.8,11.8,0,0,0-1.9,2.5,16,16,0,0,1-3.7-2.5,13.8,13.8,0,0,1-3.6,2.6,7.5,7.5,0,0,0-1.4-1.7v1.5h-2.9V9.6H118v1.1c-.2,3.3-.4,4.9-1,5.5a2.6,2.6,0,0,1-2.1.8,23.8,23.8,0,0,1-3.8,0,4.8,4.8,0,0,0-.7-2.3h3.2a1.5,1.5,0,0,0,1-.2c.2-.2.3-.9.4-2.3h-6.3V18h8Zm-9.9,10.5a12.4,12.4,0,0,0,3.2-2.3,23.3,23.3,0,0,1-3.1-6.1h-.1Zm2.9-8.4a12.8,12.8,0,0,0,2.1,3.8,14.5,14.5,0,0,0,1.6-3.8Z"/><path class="cls-1" d="M140.6,31.2h-3v-1h-9v1h-2.8V23.8l-3.6,1a10.3,10.3,0,0,0-1.5-2.7,31.2,31.2,0,0,0,8-2.6l-3-2.4,2.2-1.7a28.8,28.8,0,0,1,3.4,2.7,16.1,16.1,0,0,0,4.9-4.4h-7.7a23.5,23.5,0,0,1-5.3,3.6,15,15,0,0,0-2-2.3,17.9,17.9,0,0,0,8-6.3l3.2.6-1.3,1.8h7.5l1.9,1.2a20.5,20.5,0,0,1-7.7,8.3h7.8Zm-3-3.6V23h-9v4.6Z"/><path class="cls-1" d="M20,8.8A11.3,11.3,0,1,1,8.8,20,11.3,11.3,0,0,1,20,8.8M20,0A20,20,0,1,0,40,20,20.1,20.1,0,0,0,20,0Z"/></g></g></svg>