<svg id="I_want_to_enroll_1" xmlns="http://www.w3.org/2000/svg" width="143.2" height="40" viewBox="0 0 143.2 40">
  <g id="图层_1" data-name="图层 1">
    <path id="路径_1037" data-name="路径 1037" d="M22,12.2a20.1,20.1,0,0,1-4,5.2c.7,1.9,1.4,3,2.2,3s.8-1.2.9-4A6.9,6.9,0,0,0,23.4,18c-.4,4.2-1.3,5.3-3.5,5.3s-3.1-1.5-4.1-3.8a26.6,26.6,0,0,1-4.5,2.9,12.8,12.8,0,0,0-1.9-2.3,22.2,22.2,0,0,0,5.4-3.4,38.4,38.4,0,0,1-1.2-6.4H8.7V13l3.7-.6.2,2.6-3.9.7v4.1c0,1.6-.3,2.4-1.3,2.8a9.8,9.8,0,0,1-4.3.6,11.1,11.1,0,0,0-1-2.9H5.2c.5,0,.6-.1.6-.5V16.3l-4.3.9L.8,14.3l5-.8V10.3H1.3V7.6H5.8V4.8L2,5.4A16.9,16.9,0,0,0,1.2,3a68.4,68.4,0,0,0,9.5-2l1.9,2.4a37.5,37.5,0,0,1-3.9.9V7.6h4.6Q13,4.3,13,1h3c0,2.2.1,4.5.3,6.6h6.5v2.7H16.5c.2,1.4.5,2.8.7,4.1a21.9,21.9,0,0,0,2.3-3.3ZM20.3,6.9a19.6,19.6,0,0,0-3.4-4L19,1.5a21,21,0,0,1,3.6,3.8Z" transform="translate(-0.8)" fill="#151c51"/>
    <path id="路径_1038" data-name="路径 1038" d="M42.3,16a11.4,11.4,0,0,1-2.1,3l6.1,1.9L44,23.1c-1.7-.7-4-1.4-6.6-2.2-2.7,1.3-6.2,1.9-10.8,2.3a8.8,8.8,0,0,0-1.1-2.4,32.9,32.9,0,0,0,7.8-1l-5.1-1.2c.6-.7,1.4-1.6,2.1-2.6H25.1V13.5h6.8l.8-1.3H26.6V5.5h5.2V4.1H25.5V1.6H46.4V4.1H39.9V5.5h5.7v6.7h-11l1.2.3-.6,1H46.9V16Zm-13-6h2.5V7.7H29.3Zm4.3,6-.8,1.2,4.2,1A7.7,7.7,0,0,0,39.2,16Zm.9-10.5h2.7V4.1H34.5ZM37.2,10V7.7H34.5V10Zm2.7-2.3V10h2.9V7.7Z" transform="translate(-0.8)" fill="#151c51"/>
    <path id="路径_1039" data-name="路径 1039" d="M57.4,13.7l-2.5.7V20c0,1.5-.3,2.2-1.2,2.7a10.8,10.8,0,0,1-4.1.5,10.1,10.1,0,0,0-.9-2.8h2.7c.4,0,.6-.1.6-.5V15.2l-2.8.6-.6-2.9,3.4-.7V8.1H48.9V5.4H52V.8h2.9V5.4h2.3V8.1H54.9v3.3l2.1-.5Zm13.2-3.3a19.6,19.6,0,0,1-3,8,12,12,0,0,0,3.7,2.3,11.8,11.8,0,0,0-1.9,2.5,16,16,0,0,1-3.7-2.5,13.8,13.8,0,0,1-3.6,2.6,7.5,7.5,0,0,0-1.4-1.7v1.5H57.8V1.6H70V2.7c-.2,3.3-.4,4.9-1,5.5a2.6,2.6,0,0,1-2.1.8H63.1a4.8,4.8,0,0,0-.7-2.3h3.2a1.5,1.5,0,0,0,1-.2c.2-.2.3-.9.4-2.3H60.7V10h8ZM60.7,20.9a12.4,12.4,0,0,0,3.2-2.3,23.3,23.3,0,0,1-3.1-6.1h-.1Zm2.9-8.4a12.8,12.8,0,0,0,2.1,3.8,14.5,14.5,0,0,0,1.6-3.8Z" transform="translate(-0.8)" fill="#151c51"/>
    <path id="路径_1040" data-name="路径 1040" d="M92.6,23.2h-3v-1h-9v1H77.8V15.8l-3.6,1a10.3,10.3,0,0,0-1.5-2.7,31.2,31.2,0,0,0,8-2.6l-3-2.4,2.2-1.7a28.8,28.8,0,0,1,3.4,2.7,16.1,16.1,0,0,0,4.9-4.4H80.5a23.5,23.5,0,0,1-5.3,3.6,15,15,0,0,0-2-2.3,17.9,17.9,0,0,0,8-6.3l3.2.6L83.1,3.1h7.5l1.9,1.2a20.5,20.5,0,0,1-7.7,8.3h7.8Zm-3-3.6V15h-9v4.6Z" transform="translate(-0.8)" fill="#151c51"/>
    <path id="路径_1041" data-name="路径 1041" d="M28.4,25.8l-1.2,2.5v8.1H26V30.1l-.9,1.2-.7-1.2a12.5,12.5,0,0,0,2.9-4.6ZM32,28.5V30h3.2v1H32v1.6h3.4v1.1H32v2.8H30.8v-8h-.6a11.3,11.3,0,0,1-1.7,2.4l-.8-.8a14,14,0,0,0,2.6-4.5l1,.3-.6,1.5h4.8v1.1Z" transform="translate(-0.8)" fill="#151c51"/>
    <path id="路径_1042" data-name="路径 1042" d="M46.8,28.3v.5c-.2,4.7-.3,6.4-.8,7a1.2,1.2,0,0,1-1.1.5,5.9,5.9,0,0,1-1.9,0,1.7,1.7,0,0,0-.4-1.1H45c.3-.4.5-1.9.6-5.7H41.8a9.5,9.5,0,0,1-4.2,6.9,2.3,2.3,0,0,0-.9-.8,8.5,8.5,0,0,0,3.9-6.1H37V28.3h3.8V25.5h1.1v2.8ZM39,28a12.5,12.5,0,0,0-1.1-1.8l.9-.4a15.5,15.5,0,0,1,1.3,1.7Zm4.4,5.5a10,10,0,0,0-1.5-2.3l.9-.5A10.6,10.6,0,0,1,44.4,33Z" transform="translate(-0.8)" fill="#151c51"/>
    <path id="路径_1043" data-name="路径 1043" d="M50.7,27.3l-1.2,1.5-.9-.5a7.3,7.3,0,0,0,1.9-2.9l1,.2-.3.8h2.9v.9H52.4a10.4,10.4,0,0,0,.4,1l-1,.4a4.2,4.2,0,0,0-.6-1.4Zm8.1,5.2v.4c-.1,1.7-.3,2.4-.6,2.7l-.8.4H55.9a3.5,3.5,0,0,0-.3-1.1h1.7a5,5,0,0,0,.3-1.4H54.5v3H53.3V33.9a9.7,9.7,0,0,1-3.8,2.5l-.7-.8a10.5,10.5,0,0,0,3.7-2.1H49.6a23.6,23.6,0,0,0,.4-2.8h3.3v-1H49.6v-.9h8.8v2.8H54.5v.9ZM51,31.6c-.1.3-.1.6-.2.9h2.5v-.9Zm8.4-5.2v.9h-2a3,3,0,0,1,.7,1l-1,.4a3.7,3.7,0,0,0-.9-1.4h-.6a8.3,8.3,0,0,1-1.1,1.5l-.9-.6a7.6,7.6,0,0,0,1.6-2.8l1.1.2-.3.8Zm-4.9,4.3h2.8v-1H54.5Z" transform="translate(-0.8)" fill="#151c51"/>
    <path id="路径_1044" data-name="路径 1044" d="M71.5,30.2v1.3H60.6V30.2Z" transform="translate(-0.8)" fill="#151c51"/>
    <path id="路径_1045" data-name="路径 1045" d="M72.6,35.3a8.6,8.6,0,0,0,1.1-2.8l1,.3a10.4,10.4,0,0,1-1.1,3.1Zm4.8-7.2H72.7v-1h4.7V25.5h1.2v1.6h4.7v1H78.6v1.8h4V31H73.5V29.9h3.9Zm2.1,7.2c.6,0,.7-.2.8-1.4l1,.4c-.1,1.6-.5,2-1.7,2H77.1c-1.5,0-1.9-.3-1.9-1.4V32.4h1.1v2.5c0,.3.2.4.9.4Zm-2.2-4.2a11.1,11.1,0,0,1,2.7,2l-.9.7a9.4,9.4,0,0,0-2.6-2Zm4.5,1.3a23.1,23.1,0,0,1,1.6,3.1l-1.1.4a21.5,21.5,0,0,0-1.5-3.1Z" transform="translate(-0.8)" fill="#151c51"/>
    <path id="路径_1046" data-name="路径 1046" d="M86.4,29.2c0,2.1-.1,5.3-1.1,7.4l-.9-.7c.9-1.9,1-4.7,1-6.7V25.9H95v.9H90.2l1.1.2-.2.5h3.2v3.3h-3v1.1c0,.5-.1.7-.5.8a3,3,0,0,1-1.5.2,1.9,1.9,0,0,0-.3-.8h1.1a.2.2,0,0,0,.2-.2V30.8H87.4V27.5h2.5c.1-.2.1-.5.2-.7H86.4Zm-.2,6.3a7.3,7.3,0,0,0,.9-2.2l.8.3a7.9,7.9,0,0,1-.9,2.3Zm3.1-4.3a11.2,11.2,0,0,1-2,1.7,2.9,2.9,0,0,0-.8-.7,6.7,6.7,0,0,0,1.9-1.4ZM92,35.4c.5,0,.6-.1.6-1.1l.9.4c-.1,1.3-.4,1.6-1.4,1.6H90c-1.3,0-1.6-.3-1.6-1.2V33.4h.9v1.7c0,.2.1.3.8.3Zm1.2-7.2H88.4v.6h4.8Zm0,1.3H88.4v.6h4.8ZM90.8,33l1.3,1.3-.8.6A8.1,8.1,0,0,0,90,33.4Zm3.3-.1A19.1,19.1,0,0,0,92,31.4l.8-.6,2,1.4Zm-.1.2a18.6,18.6,0,0,1,1.4,2l-.9.4-1.3-2Z" transform="translate(-0.8)" fill="#151c51"/>
    <path id="路径_1047" data-name="路径 1047" d="M124,8.8A11.3,11.3,0,1,1,112.8,20,11.3,11.3,0,0,1,124,8.8M124,0a20,20,0,1,0,20,20A20,20,0,0,0,124,0Z" transform="translate(-0.8)" fill="#151c51"/>
  </g>
</svg>
