<svg xmlns="http://www.w3.org/2000/svg" xmlns:xlink="http://www.w3.org/1999/xlink" viewBox="0 0 360 560"><defs><style>.cls-1,.cls-10{fill:none;}.cls-2{clip-path:url(#clip-path);}.cls-3{fill:#151c51;}.cls-4{fill:url(#未命名的渐变_7);}.cls-5{fill:url(#未命名的渐变_167);}.cls-6{fill:url(#未命名的渐变_165);}.cls-7{fill:url(#未命名的渐变_165-2);}.cls-8{fill:url(#未命名的渐变_163);}.cls-9{fill:url(#未命名的渐变_163-2);}.cls-10{stroke:#f18c1a;stroke-miterlimit:10;stroke-width:2.9px;}.cls-11{fill:url(#未命名的渐变_118);}.cls-12{fill:#fff;}.cls-13{fill:#ff9000;}</style><clipPath id="clip-path"><rect class="cls-1" width="360" height="560"/></clipPath><radialGradient id="未命名的渐变_7" cx="-85.29" cy="63.43" fx="-448.5799348836482" r="399.41" gradientUnits="userSpaceOnUse"><stop offset="0.7" stop-color="#151c51"/><stop offset="0.85" stop-color="#161d53"/><stop offset="0.9" stop-color="#19205a"/><stop offset="0.94" stop-color="#1f2565"/><stop offset="0.97" stop-color="#272d76"/><stop offset="0.99" stop-color="#32378c"/><stop offset="1" stop-color="#353a93"/></radialGradient><linearGradient id="未命名的渐变_167" x1="232.64" y1="391.28" x2="-52.82" y2="227.17" gradientUnits="userSpaceOnUse"><stop offset="0" stop-color="#f18c1a"/><stop offset="0.23" stop-color="#f18d1c" stop-opacity="0.99"/><stop offset="0.37" stop-color="#f29124" stop-opacity="0.95"/><stop offset="0.48" stop-color="#f29832" stop-opacity="0.9"/><stop offset="0.58" stop-color="#f4a245" stop-opacity="0.81"/><stop offset="0.68" stop-color="#f5ae5e" stop-opacity="0.7"/><stop offset="0.76" stop-color="#f7be7d" stop-opacity="0.57"/><stop offset="0.84" stop-color="#f9d0a2" stop-opacity="0.41"/><stop offset="0.92" stop-color="#fce5cc" stop-opacity="0.22"/><stop offset="0.99" stop-color="#fffdfb" stop-opacity="0.02"/><stop offset="1" stop-color="#fff" stop-opacity="0"/></linearGradient><linearGradient id="未命名的渐变_165" x1="227" y1="401.43" x2="-58.6" y2="237.23" gradientUnits="userSpaceOnUse"><stop offset="0" stop-color="#f18c1a"/><stop offset="0.7" stop-color="#fff" stop-opacity="0"/></linearGradient><linearGradient id="未命名的渐变_165-2" x1="238.67" y1="381.35" x2="-46.94" y2="217.16" xlink:href="#未命名的渐变_165"/><linearGradient id="未命名的渐变_163" x1="248.03" y1="373.34" x2="-41.15" y2="207.09" gradientUnits="userSpaceOnUse"><stop offset="0" stop-color="#f18c1a"/><stop offset="0.03" stop-color="#f39e3e" stop-opacity="0.84"/><stop offset="0.09" stop-color="#f6b771" stop-opacity="0.62"/><stop offset="0.14" stop-color="#f9cd9c" stop-opacity="0.43"/><stop offset="0.19" stop-color="#fbdfc0" stop-opacity="0.28"/><stop offset="0.25" stop-color="#fdeddb" stop-opacity="0.16"/><stop offset="0.3" stop-color="#fef7ef" stop-opacity="0.07"/><stop offset="0.35" stop-color="#fffdfb" stop-opacity="0.02"/><stop offset="0.4" stop-color="#fff" stop-opacity="0"/></linearGradient><linearGradient id="未命名的渐变_163-2" x1="224.88" y1="413.6" x2="-64.3" y2="247.35" xlink:href="#未命名的渐变_163"/><radialGradient id="未命名的渐变_118" cx="1766.28" cy="1207.76" fx="1717.2505503368936" r="50.07" gradientTransform="matrix(-0.87, -0.5, -0.5, 0.87, 2400.43, 244.66)" gradientUnits="userSpaceOnUse"><stop offset="0.7" stop-color="#151c51"/><stop offset="0.74" stop-color="#191e50"/><stop offset="0.78" stop-color="#26244d"/><stop offset="0.82" stop-color="#3a2f48"/><stop offset="0.86" stop-color="#573e40"/><stop offset="0.9" stop-color="#7d5137"/><stop offset="0.95" stop-color="#ab682c"/><stop offset="0.99" stop-color="#e0831e"/><stop offset="1" stop-color="#f18c1a"/></radialGradient></defs><title>首页</title><g id="图层_1" data-name="图层 1"><g class="cls-2"><rect class="cls-3" x="-0.1" width="360" height="560"/><circle class="cls-4" cx="-68.8" cy="60.7" r="380.7"/><path class="cls-5" d="M-51.2,228.1,232,388.8a1.9,1.9,0,0,1,.6,2.5,1.9,1.9,0,0,1-2.5.7h0Z"/><path class="cls-6" d="M-57,238.1,226.3,398.9a1.8,1.8,0,1,1-1.8,3.2h0Z"/><path class="cls-7" d="M-45.4,218.1,238,378.8a1.8,1.8,0,0,1,.7,2.5,1.8,1.8,0,0,1-2.5.7h0Z"/><path class="cls-8" d="M-39.6,208,247.3,370.8a1.8,1.8,0,1,1-1.8,3.2h0Z"/><path class="cls-9" d="M-62.7,248.3,224.2,411.1a1.8,1.8,0,0,1-1.8,3.2h0Z"/><path class="cls-10" d="M327.9,402.4c-.7-6.4-29.7-8.3-64.8-4.4s-62.8,12.3-62.1,18.7"/><circle class="cls-11" cx="264.4" cy="409.6" r="46.4"/><path class="cls-10" d="M201,416.7c.7,6.4,29.7,8.3,64.7,4.4s62.9-12.3,62.2-18.7"/><rect class="cls-1" width="360" height="640"/></g><path class="cls-12" d="M61.8,143.7c2.4,6.5,6.5,11.7,13.2,14.3a19.2,19.2,0,0,0-3.9,5c-6.4-3-10.3-7.7-13.1-14.1-2,5.5-5.9,10.5-13,14.1a15.1,15.1,0,0,0-3.9-4.5c7.9-3.6,11.2-9,12.6-14.8H41.8v-5.5H54.6c.2-3.1.2-6.3.2-9.3h5.8c0,3-.1,6.2-.4,9.3H74.1v5.5Z"/><path class="cls-12" d="M91.5,158.1c1.4,0,1.6-.7,1.8-4.3a13.9,13.9,0,0,0,4.5,1.9c-.6,5.2-1.9,6.8-5.9,6.8H86.7c-4.7,0-6.2-1.4-6.2-6.2V144.4l-.5.4a27.2,27.2,0,0,0-3.7-3.9,28.6,28.6,0,0,0,10-12.1l4.7,1.5a10.1,10.1,0,0,1-.7,1.5,74.5,74.5,0,0,1,7.3,8.6V133h5v20.7h-5V140.8L95.3,143v.6c-.2,5.9-.5,8.6-1.4,9.7a4.2,4.2,0,0,1-2.6,1.4,25.9,25.9,0,0,1-4.1.1,9.6,9.6,0,0,0-1.2-4.3h2.6a1.3,1.3,0,0,0,1-.4c.3-.3.5-1.4.7-3.8H85.6v9.9c0,1.6.2,1.8,1.8,1.8Zm1-16.2c-1.3-1.8-3-3.8-4.6-5.7a31.9,31.9,0,0,1-4.6,5.7Zm17.1-12.2v27.5c0,2.8-.6,4.1-2.2,4.9s-4.3,1-7.7,1A19.1,19.1,0,0,0,98,158h5.4c.7,0,1-.2,1-.9V129.7Z"/><path class="cls-12" d="M139.9,145.9a19.7,19.7,0,0,0,7.5,4.6,16.9,16.9,0,0,0-3.6,4.4,21.2,21.2,0,0,1-3.6-2.1v10.1h-5.7v-1.4h-9.7v1.6h-5.5V152.8a25.3,25.3,0,0,1-3.2,2.1,12.7,12.7,0,0,0-3.6-4.4,24.4,24.4,0,0,0,6.5-4.6h-5.6v-4.4h9.1l.6-1.1h-6.5v-4.1h8.3l.3-1h-10V131h10.9l.3-2.1,5.7.5-.3,1.6h12.6v4.3H130.9l-.3,1h12.8v4.1H129.1l-.5,1.1h17.9v4.4Zm-5.4,5.4h-9.7v1.1h9.7Zm0,5.9v-1.1h-9.7v1.1ZM126,145.9l-.8,1.2h9.4l-.8-1.2Z"/><path class="cls-12" d="M161.3,148.5l-3.8,1.1v7.8c0,2.4-.3,3.8-1.6,4.6s-3,1.1-5.4,1.1a19.1,19.1,0,0,0-1.3-5.1h2.7c.5,0,.6-.1.6-.6v-6.5l-2.9.8-1.1-5,4-.9v-5.5h-3.4v-4.8h3.4v-6.6h5v6.6h3.8v4.8h-3.8v4.3l3.1-.8Zm20.8-17.9v1.9c-.3,7.7-.6,11.1-1.6,12.3a3.6,3.6,0,0,1-2.8,1.6,27.6,27.6,0,0,1-4.4.2,10.8,10.8,0,0,0-1.5-4.9l3.1.2a1.3,1.3,0,0,0,1.2-.5c.4-.5.6-2.2.8-6.1h-5.1c-.6,5.3-2.3,9.4-8.2,12.1a13.9,13.9,0,0,0-3.1-4.1c4.4-1.8,5.6-4.5,6-8H162v-4.7Zm-19.2,17h18.6V163h-5.3v-1.3h-8.3v1.4h-5Zm5,4.6v4.9h8.3v-4.9Z"/><path class="cls-12" d="M41.4,199.2c6.7-6.1,11.2-10.9,11.2-14.8s-1.4-3.8-3.5-3.8-3.3,1.2-4.5,2.6l-3.5-3.5c2.6-2.7,5.1-4.1,8.9-4.1s8.8,3.3,8.8,8.4-4,9.7-8.1,13.8l4.4-.3H60v5.4H41.4Z"/><path class="cls-12" d="M63.3,189.3c0-9.2,3.8-13.7,9.5-13.7s9.5,4.6,9.5,13.7-3.9,14.1-9.5,14.1S63.3,198.6,63.3,189.3Zm12.9,0c0-7.3-1.5-8.8-3.4-8.8s-3.5,1.5-3.5,8.8,1.6,9.1,3.5,9.1S76.2,196.7,76.2,189.3Z"/><path class="cls-12" d="M86.6,197.7h5.6V182.5H87.3v-4a16,16,0,0,0,6.6-2.4h4.7v21.6h4.9v5.2H86.6Z"/><path class="cls-12" d="M110.7,196.4a6.5,6.5,0,0,0,4.1,1.8c2.8,0,4.9-1.9,5.2-7.8a7.2,7.2,0,0,1-5.1,2.7c-4.5,0-7.9-2.7-7.9-8.4a8.7,8.7,0,0,1,8.9-9.1c5,0,10,3.8,10,13.6s-5.1,14.2-10.6,14.2a10.9,10.9,0,0,1-7.9-3.2Zm9.2-10.3c-.6-4.5-2.2-5.7-3.9-5.7s-3.1,1.2-3.1,4.3,1.4,3.9,3.2,3.9A4.5,4.5,0,0,0,119.9,186.1Z"/><rect class="cls-13" x="39.9" y="216" width="64" height="16"/><path class="cls-12" d="M72.6,75.8V61.3c0-.4.1-.5.5-.5a47.9,47.9,0,0,1,10,1.1,32.7,32.7,0,0,1,5.3,1.7c.2.1.3.2.2.5L79.9,85c-.9,2.1-1.9,4.3-2.8,6.5-.1.3-.2.3-.4.2l-2.6-.8-1.3-.2c-.2,0-.2-.1-.2-.3V75.8Z"/><path class="cls-12" d="M70.5,85.6c-.1,1.7,0,3.3-.1,5a.4.4,0,0,1-.4.4,13,13,0,0,0-3.3.7,13.6,13.6,0,0,0-2.5,1.1l-1.7.8a2.4,2.4,0,0,0-.8.6,8.7,8.7,0,0,0-1.1.9c-.4.3-.5.3-.9-.1l-1.9-1.9-6.7-6.8c-1.5-1.4-2.9-2.9-4.4-4.4l-1.8-1.8c-.4-.4-.4-.5,0-.9a36.6,36.6,0,0,1,6.2-4.8,18.7,18.7,0,0,1,3.1-1.7l.9-.3a.4.4,0,0,1,.5.2c.6,1.6,1.3,3.2,2,4.9s2.6,6.2,4,9.3c.1.3.1.3.4.2a31.5,31.5,0,0,1,6-1.7,8.1,8.1,0,0,1,2.2-.1C70.5,85.2,70.5,85.4,70.5,85.6Z"/><path class="cls-12" d="M99.9,107.4H97.5c-.3,0-.4-.1-.4-.4a26.3,26.3,0,0,0-.6-4.8,13.5,13.5,0,0,0-1.8-4.1.6.6,0,0,0-.5-.2l-6.4,2.6h0c-.6.2-.6.2-.8-.4a10.7,10.7,0,0,0-3.1-3.9l-2.8-2.4-.7-.4c-.4-.1-.6-.4-.9-.8s0-.3,0-.5l1.4-3.6a4.1,4.1,0,0,1,.5-.9.4.4,0,0,1,.5-.1A25.6,25.6,0,0,1,87,91.1a8.6,8.6,0,0,1,1.3,1.4c.2.3.2.3.5,0l5.3-5.1h0c.4-.4.6-.4,1,.1a45.1,45.1,0,0,1,4.6,6.8,27.6,27.6,0,0,1,2.9,8.8,23.4,23.4,0,0,1,.3,3.8c0,.4-.1.5-.5.5H99.9Z"/><path class="cls-12" d="M40.4,105.5a20.7,20.7,0,0,1,1.4-7.4.4.4,0,0,0,.1-.3c.2-.3.4-.4.7-.2l4.8,2,1.7.7c.2.1.3.1.4-.1a48.2,48.2,0,0,1,2.7-5A20,20,0,0,1,54.1,93a.4.4,0,0,1,.7.1,31.9,31.9,0,0,0,2.6,2.6l.9,1a.2.2,0,0,1,0,.3,13,13,0,0,0-3.7,6.9,30.1,30.1,0,0,0-.2,6.7,28.7,28.7,0,0,0,.5,3.1c.1.2.1.3-.1.4L50.7,116l-.5.2c-.4.1-.6,0-.8-.4a3.6,3.6,0,0,1-.4-.9,26.3,26.3,0,0,1-.7-4.9,24.5,24.5,0,0,0-.2-2.7c0-.2-.1-.2-.3-.2l-3.1.2H40.8c-.3.1-.3,0-.4-.3A8.6,8.6,0,0,1,40.4,105.5Z"/><path class="cls-12" d="M72.9,119.8a1.8,1.8,0,0,1-1-.2,1,1,0,0,1-.4-.7.4.4,0,0,0-.1-.3,6.5,6.5,0,0,1-.4-1.3l-.5-1.4-1.1-3c-.3-1-.7-1.9-1-2.9a16.7,16.7,0,0,0-.8-2,.6.6,0,0,1,.5-.8,3.4,3.4,0,0,1,1,0,.8.8,0,0,1,.7.7,19.5,19.5,0,0,0,.8,2.2c0,.1.1.3.1.4a.9.9,0,0,0,.3.7,6.5,6.5,0,0,1,.4,1.3,19.9,19.9,0,0,0,.9,2.6,1.1,1.1,0,0,1,.1.5l.3.7a.2.2,0,0,0,.2.2c.2-.1.3-.1.3-.3a24.9,24.9,0,0,1,1.1-2.9l.3-1.2.8-2.1c.2-.7.5-1.4.7-2.1a1.1,1.1,0,0,1,1.1-.7H78a.5.5,0,0,1,.3.5c0,.1-.1.3-.1.4s-1,3-1.7,4.4l-.9,2.4a26.4,26.4,0,0,0-1,3,6.1,6.1,0,0,1-.5,1.2.9.9,0,0,1-.9.6Z"/><path class="cls-12" d="M63.4,107.1h.9a3.7,3.7,0,0,1,1.4.4c.2.1.2.3.3.5v1.3c0,.3-.1.4-.4.3l-.6-.3a3.8,3.8,0,0,0-3.3,0,1,1,0,0,0-.7,1,1.5,1.5,0,0,0,.9,1.6l2,1.1a5.4,5.4,0,0,1,2.3,1.9,3.4,3.4,0,0,1,.4,2.4,3.8,3.8,0,0,1-3.1,2.6h-.6a4.2,4.2,0,0,1-2.5-.2l-.6-.2a1.2,1.2,0,0,1-1.1-1.2,2.2,2.2,0,0,1,.1-.8c0-.5.1-.6.5-.4l.6.3a6.1,6.1,0,0,0,2.9.6,2.6,2.6,0,0,0,1.5-.7h0a1.7,1.7,0,0,0-.2-1.7,4.2,4.2,0,0,0-1.4-.9,9.4,9.4,0,0,1-3.3-2.3.5.5,0,0,1-.3-.5,5,5,0,0,1-.4-1.3,3.4,3.4,0,0,1,2.4-3.1h0A3.7,3.7,0,0,1,63.4,107.1Z"/><path class="cls-12" d="M91,112.9a6.1,6.1,0,0,0-.1-1.4,8.2,8.2,0,0,0-1.2-2.5,6.5,6.5,0,0,0-1.6-1.3,4.2,4.2,0,0,0-2.1-.6H84.6a4.9,4.9,0,0,0-3.5,1.6,5.5,5.5,0,0,0-1.6,3.1,11.5,11.5,0,0,0-.1,1.8,4.8,4.8,0,0,1,0,1.2,3.7,3.7,0,0,0,.6,2.1,5.1,5.1,0,0,0,1.9,2.2,6.6,6.6,0,0,0,3.8,1l1.4-.4.7-.3a3.9,3.9,0,0,0,2.1-1.9c0-.1.1-.1.1-.2a4.2,4.2,0,0,0,.9-1.9A10.5,10.5,0,0,0,91,112.9Zm-2.5,2.9a3.1,3.1,0,0,1-1.3,1.7,4.4,4.4,0,0,1-1.6.6,3.4,3.4,0,0,1-3.2-1.4,4.8,4.8,0,0,1-1-2.8v-.3a4.1,4.1,0,0,1,.1-1.1,1.9,1.9,0,0,0,.2-.8.6.6,0,0,1,.1-.4,4.1,4.1,0,0,1,2-2.1,4.6,4.6,0,0,1,2-.2,3.7,3.7,0,0,1,2.9,2.7A6.4,6.4,0,0,1,88.5,115.8Z"/></g></svg>