<svg id="modify" xmlns="http://www.w3.org/2000/svg" width="95.5" height="40" viewBox="0 0 95.5 40">
  <g id="图层_1" data-name="图层 1">
    <path id="路径_1054" data-name="路径 1054" d="M55.8,9.7a47.8,47.8,0,0,1-1.9,4.8V31.2H51.2V19.4c-.5.6-.9,1.3-1.4,1.8a16.6,16.6,0,0,0-1.4-3.1,25.8,25.8,0,0,0,4.8-9.2Zm14.6,2.2a12.4,12.4,0,0,1-3.7,5.2,16.9,16.9,0,0,0,4.8,1.5,18.8,18.8,0,0,0-1.6,2.3,19.1,19.1,0,0,1-5.4-2.2,28.9,28.9,0,0,1-6,2.4,12.9,12.9,0,0,0-.9-1.6v7.7H55.2V15.6h2.4v3.2a22.6,22.6,0,0,0,4.8-1.7,11.2,11.2,0,0,1-1.8-2l-1.5,1.6A12,12,0,0,0,57,15a13.7,13.7,0,0,0,4.3-6.2l2.6.6a14.2,14.2,0,0,1-.8,1.8h5.7Zm.7,13.9c-2.5,2.9-6.8,4.5-11.7,5.4A7.4,7.4,0,0,0,58,29c4.4-.6,8.6-1.9,10.6-4.2Zm-4.5-5.1a16,16,0,0,1-6,3.4A6.5,6.5,0,0,0,59,22.4a13.9,13.9,0,0,0,5.6-2.6ZM69,23c-1.9,2-5.1,3.5-8.4,4.3a11,11,0,0,0-1.4-1.8c3-.6,6.1-1.8,7.7-3.4Zm-6.9-9.5a10.6,10.6,0,0,0,2.4,2.3,10,10,0,0,0,2.3-2.3Z" fill="#fff"/>
    <path id="路径_1055" data-name="路径 1055" d="M93.9,15.7a26.1,26.1,0,0,1-3,9.3,11.8,11.8,0,0,0,4.6,3.6,9.2,9.2,0,0,0-1.9,2.5,13.6,13.6,0,0,1-4.5-3.7,15.8,15.8,0,0,1-5.2,3.9,10.6,10.6,0,0,0-1.7-2.6,12.8,12.8,0,0,0,5.2-3.8,33.8,33.8,0,0,1-2.1-5.4,5.7,5.7,0,0,1-1.2,1.8l-1.6-1.7v.3H76.8v6.2l5.7-2a18.5,18.5,0,0,0,.3,2.7c-6.9,2.6-8,3.2-8.7,3.7A14.5,14.5,0,0,0,73,27.6a1.7,1.7,0,0,0,.9-1.6V17.1h5.8v-4H73.6V10.3h8.9v8.2a25.8,25.8,0,0,0,3.6-9.7l2.8.5L88,13.1h7v2.6Zm-6.8.1a23.3,23.3,0,0,0,2,6.3,19.3,19.3,0,0,0,1.8-6.4H87.1Z" fill="#fff"/>
    <path id="路径_1056" data-name="路径 1056" d="M20,8.8A11.3,11.3,0,1,1,8.8,20,11.3,11.3,0,0,1,20,8.8M20,0A20,20,0,1,0,40,20,20,20,0,0,0,20,0Z" fill="#fff"/>
  </g>
</svg>
