<svg xmlns="http://www.w3.org/2000/svg" viewBox="0 0 133.9 40"><defs><style>.cls-1{fill:#ff9000;}.cls-2{fill:#fff;}</style></defs><title>picked1</title><g id="图层_2" data-name="图层 2"><g id="图层_1-2" data-name="图层 1"><circle class="cls-1" cx="113.9" cy="20" r="20"/><path class="cls-2" d="M119,25.6h3.6V15.1h-3v-2a11.2,11.2,0,0,0,3.8-1.4h2.5V25.6H129v2.7H119Z" transform="translate(-10.1)"/><path class="cls-1" d="M10.1,3.4H16c3.9,0,6.9,1.3,6.9,5.5s-3,5.9-6.8,5.9H13.7v6.3H10.1ZM15.8,12c2.5,0,3.6-1,3.6-3.1s-1.3-2.7-3.7-2.7h-2V12Z" transform="translate(-10.1)"/><path class="cls-1" d="M25.5,3.6a1.9,1.9,0,0,1,2.1-1.9,1.9,1.9,0,0,1,2.1,1.9,2,2,0,0,1-2.1,1.9A2,2,0,0,1,25.5,3.6Zm.3,4.1h3.6V21.1H25.8Z" transform="translate(-10.1)"/><path class="cls-1" d="M32.3,14.4a6.7,6.7,0,0,1,6.9-7.1,6.2,6.2,0,0,1,3.9,1.5l-1.7,2.3a3,3,0,0,0-2.1-.9c-2,0-3.4,1.7-3.4,4.2s1.4,4.2,3.3,4.2a4.6,4.6,0,0,0,2.7-1.1l1.3,2.3a6.2,6.2,0,0,1-4.3,1.7C35.1,21.5,32.3,18.9,32.3,14.4Z" transform="translate(-10.1)"/><path class="cls-1" d="M45.8,2h3.4V13.5h.1L54,7.7h3.8l-4.6,5.5,5,7.9H54.4l-3.2-5.5-2,2.2v3.3H45.8Z" transform="translate(-10.1)"/><path class="cls-1" d="M58.8,14.4c0-4.3,3-7.1,6.2-7.1s5.7,2.8,5.7,6.5a6.3,6.3,0,0,1-.2,1.6H62.2a3.5,3.5,0,0,0,3.7,3.3,5.9,5.9,0,0,0,3.1-.9L70.2,20a9.1,9.1,0,0,1-4.8,1.5C61.7,21.5,58.8,18.8,58.8,14.4Zm8.8-1.3c0-1.9-.8-3-2.5-3a3,3,0,0,0-2.9,3Z" transform="translate(-10.1)"/><path class="cls-1" d="M72.8,14.4c0-4.4,2.7-7.1,5.6-7.1a4.5,4.5,0,0,1,3.4,1.5V2h3.5V21.1H82.4l-.3-1.4H82a5.5,5.5,0,0,1-3.7,1.8C75,21.5,72.8,18.8,72.8,14.4Zm8.9,2.8V11.3a3.5,3.5,0,0,0-2.5-1.1c-1.5,0-2.8,1.5-2.8,4.2s1,4.2,2.8,4.2A3.1,3.1,0,0,0,81.7,17.2Z" transform="translate(-10.1)"/><path class="cls-1" d="M89.4,19.2a2.3,2.3,0,0,1,2.2-2.4,2.3,2.3,0,0,1,2.2,2.4,2.3,2.3,0,0,1-2.2,2.3A2.2,2.2,0,0,1,89.4,19.2Zm.5-13V2.9h3.5V6.2l-.5,8.9H90.4Z" transform="translate(-10.1)"/><path class="cls-1" d="M28.4,25.8l-1.2,2.5v8.1H26V30.1l-.9,1.2-.7-1.2a12.5,12.5,0,0,0,2.9-4.6ZM32,28.5V30h3.2v1H32v1.6h3.4v1.1H32v2.8H30.8v-8h-.6a11.3,11.3,0,0,1-1.7,2.4l-.8-.8a14,14,0,0,0,2.6-4.5l1,.3-.6,1.5h4.8v1.1Z" transform="translate(-10.1)"/><path class="cls-1" d="M46.8,28.3v.5c-.2,4.7-.3,6.4-.8,7a1.2,1.2,0,0,1-1.1.5,5.9,5.9,0,0,1-1.9,0,1.7,1.7,0,0,0-.4-1.1H45c.3-.4.5-1.9.6-5.7H41.8a9.5,9.5,0,0,1-4.2,6.9,2.3,2.3,0,0,0-.9-.8,8.5,8.5,0,0,0,3.9-6.1H37V28.3h3.8V25.5h1.1v2.8ZM39,28a12.5,12.5,0,0,0-1.1-1.8l.9-.4a15.5,15.5,0,0,1,1.3,1.7Zm4.4,5.5a10,10,0,0,0-1.5-2.3l.9-.5A10.6,10.6,0,0,1,44.4,33Z" transform="translate(-10.1)"/><path class="cls-1" d="M50.7,27.3l-1.2,1.5-.9-.5a7.3,7.3,0,0,0,1.9-2.9l1,.2-.3.8h2.9v.9H52.4a10.4,10.4,0,0,0,.4,1l-1,.4a4.2,4.2,0,0,0-.6-1.4Zm8.1,5.2v.4c-.1,1.7-.3,2.4-.6,2.7l-.8.4H55.9a3.5,3.5,0,0,0-.3-1.1h1.7a5,5,0,0,0,.3-1.4H54.5v3H53.3V33.9a9.7,9.7,0,0,1-3.8,2.5l-.7-.8a10.5,10.5,0,0,0,3.7-2.1H49.6a23.6,23.6,0,0,0,.4-2.8h3.3v-1H49.6v-.9h8.8v2.8H54.5v.9ZM51,31.6c-.1.3-.1.6-.2.9h2.5v-.9Zm8.4-5.2v.9h-2a3,3,0,0,1,.7,1l-1,.4a3.7,3.7,0,0,0-.9-1.4h-.6a8.3,8.3,0,0,1-1.1,1.5l-.9-.6a7.6,7.6,0,0,0,1.6-2.8l1.1.2-.3.8Zm-4.9,4.3h2.8v-1H54.5Z" transform="translate(-10.1)"/><path class="cls-1" d="M71.5,30.2v1.3H60.6V30.2Z" transform="translate(-10.1)"/><path class="cls-1" d="M72.6,35.3a8.6,8.6,0,0,0,1.1-2.8l1,.3a10.4,10.4,0,0,1-1.1,3.1Zm4.8-7.2H72.7v-1h4.7V25.5h1.2v1.6h4.7v1H78.6v1.8h4V31H73.5V29.9h3.9Zm2.1,7.2c.6,0,.7-.2.8-1.4l1,.4c-.1,1.6-.5,2-1.7,2H77.1c-1.5,0-1.9-.3-1.9-1.4V32.4h1.1v2.5c0,.3.2.4.9.4Zm-2.2-4.2a11.1,11.1,0,0,1,2.7,2l-.9.7a9.4,9.4,0,0,0-2.6-2Zm4.5,1.3a23.1,23.1,0,0,1,1.6,3.1l-1.1.4a21.5,21.5,0,0,0-1.5-3.1Z" transform="translate(-10.1)"/><path class="cls-1" d="M86.4,29.2c0,2.1-.1,5.3-1.1,7.4l-.9-.7c.9-1.9,1-4.7,1-6.7V25.9H95v.9H90.2l1.1.2-.2.5h3.2v3.3h-3v1.1c0,.5-.1.7-.5.8a3,3,0,0,1-1.5.2,1.9,1.9,0,0,0-.3-.8h1.1a.2.2,0,0,0,.2-.2V30.8H87.4V27.5h2.5c.1-.2.1-.5.2-.7H86.4Zm-.2,6.3a7.3,7.3,0,0,0,.9-2.2l.8.3a7.9,7.9,0,0,1-.9,2.3Zm3.1-4.3a11.2,11.2,0,0,1-2,1.7,2.9,2.9,0,0,0-.8-.7,6.7,6.7,0,0,0,1.9-1.4ZM92,35.4c.5,0,.6-.1.6-1.1l.9.4c-.1,1.3-.4,1.6-1.4,1.6H90c-1.3,0-1.6-.3-1.6-1.2V33.4h.9v1.7c0,.2.1.3.8.3Zm1.2-7.2H88.4v.6h4.8Zm0,1.3H88.4v.6h4.8ZM90.8,33l1.3,1.3-.8.6A8.1,8.1,0,0,0,90,33.4Zm3.3-.1A19.1,19.1,0,0,0,92,31.4l.8-.6,2,1.4Zm-.1.2a18.6,18.6,0,0,1,1.4,2l-.9.4-1.3-2Z" transform="translate(-10.1)"/></g></g></svg>