<svg id="return" xmlns="http://www.w3.org/2000/svg" width="94.3" height="40" viewBox="0 0 94.3 40">
  <g id="图层_1" data-name="图层 1">
    <path id="路径_1057" data-name="路径 1057" d="M54.6,26.3l1.4.8a16.1,16.1,0,0,0,6.6,1,81,81,0,0,0,8.7-.6,11.1,11.1,0,0,0-.8,3c-1.6.2-5.5.3-8,.3a15.7,15.7,0,0,1-7-1.2,12,12,0,0,0-2.6-1.3c-.7,0-1.7,1.6-2.4,2.9l-2-2.8A9.2,9.2,0,0,1,51.7,26V20.1H49V17.4h5.6ZM52.7,14.9a38.2,38.2,0,0,0-3.4-4l2.3-1.6c1.1,1.2,2.7,2.8,3.5,3.8ZM59.9,17c-.1,3.2-.7,7.2-2.8,9.8a12.8,12.8,0,0,0-2.5-1.5c2.3-2.8,2.5-6.7,2.5-9.6V10.4c4.1-.2,8.8-.6,11.5-1.4l2.3,2.3a59.6,59.6,0,0,1-11,1.5v1.7h8.3L70,15a18.3,18.3,0,0,1-3.1,7.2,35,35,0,0,1,3.3,3L68,27.1l-2.9-2.9a15.4,15.4,0,0,1-4.9,3,9.1,9.1,0,0,0-1.6-2.4A11.1,11.1,0,0,0,63,22.4a40.3,40.3,0,0,0-3.3-2.9l2-1.7,3.1,2.6A15.6,15.6,0,0,0,66.6,17Z" fill="#fff"/>
    <path id="路径_1058" data-name="路径 1058" d="M94.3,9.6V31.2H91.2V29.9H76.7v1.3H73.8V9.6ZM91.2,27.2V12.5H76.7V27.2ZM88.8,15.3v9.2H79V15.3Zm-2.9,2.5H81.7V22h4.2Z" fill="#fff"/>
    <path id="路径_1059" data-name="路径 1059" d="M20,8.8A11.3,11.3,0,1,1,8.8,20,11.3,11.3,0,0,1,20,8.8M20,0A20,20,0,1,0,40,20,20,20,0,0,0,20,0Z" fill="#fff"/>
  </g>
</svg>
