<svg xmlns="http://www.w3.org/2000/svg" viewBox="0 0 142.4 150.8"><defs><style>.cls-1{fill:#fff;}.cls-2{fill:#ff9000;}</style></defs><title>title5</title><g id="图层_2" data-name="图层 2"><g id="图层_1-2" data-name="图层 1"><path class="cls-1" d="M7.5,30.5v2.6H4V21.9a15.6,15.6,0,0,1-1.6,2A20.9,20.9,0,0,0,.9,18.8c2.3-3,3.7-7.4,4.6-12.1H1.8V2.8H14.3V6.7H9.5a58.6,58.6,0,0,1-1.9,7.2h5.9V30.5ZM10,17.7H7.5v9H10ZM33.7,30.4c0,1.9-.3,2.8-1.4,3.4s-2.6.7-4.6.7a14.6,14.6,0,0,0-.9-3.6h2.4c.3,0,.5-.1.5-.5v-4H26.4v6.8H22.7V26.4H19.1a17,17,0,0,1-3.5,8.4,16.6,16.6,0,0,0-3.4-2.2c3.2-3.7,3.6-9.1,3.6-13.2v-6l-1.3,1.2a22.6,22.6,0,0,0-2.3-3.4A21.1,21.1,0,0,0,19,1.2l3.7.9-.9,2h6.7l2.8,1.8a31.9,31.9,0,0,1-3.2,4.6h5.6ZM20.2,7.6c-.6,1-1.3,1.9-1.9,2.8h5.4c.6-.8,1.3-1.8,1.9-2.8Zm2.5,15.1V19.9h-3a27.2,27.2,0,0,1-.1,2.8Zm-3-6h3V14h-3Zm10-2.7H26.4v2.7h3.3Zm0,8.7V19.9H26.4v2.8Z" transform="translate(0 -1.2)"/><path class="cls-1" d="M50.2,23.8a31.9,31.9,0,0,0,1.3,3.7c-6.8,4.9-7.9,5.9-8.6,6.7a16.1,16.1,0,0,0-2.1-3,5.5,5.5,0,0,0,2.1-4V16.3H37.5V12.2H47V26ZM46,10a76.3,76.3,0,0,0-5.7-5.7l2.8-2.7c1.8,1.6,4.6,3.9,5.9,5.3ZM62,1.4c0,3.4,0,6.9-.3,10.3s1.7,14.5,9.5,19.9a11.8,11.8,0,0,0-3.1,3.2c-4.2-3.1-6.7-7.9-8.1-12.4a23.2,23.2,0,0,1-7.9,12.4,12.2,12.2,0,0,0-3.2-3.2c9-6.7,8.7-18.6,8.8-30.2Z" transform="translate(0 -1.2)"/><path class="cls-1" d="M12.7,45.8a70.4,70.4,0,0,1-3.4,7.4V77.9H5.1V59.5a24.3,24.3,0,0,1-2.4,3A21.3,21.3,0,0,0,.4,58,37,37,0,0,0,8.6,44.5Zm12.7,9V73.2c0,2.1-.3,3.3-1.6,4s-3,.8-5.3.8A18.4,18.4,0,0,0,17,73.7h3.5c.5,0,.7-.2.7-.6V54.8H17a28.7,28.7,0,0,1-3.4,5.5,23,23,0,0,0-3.4-2.8c2.7-3.1,4.8-8,6.1-13l4.1,1a46.4,46.4,0,0,1-1.6,5.3h13l3,.6c-.4,2.9-1,6.2-1.5,8.3L29.7,59c.1-1.1.4-2.6.5-4.2Zm-6,6.5a34.7,34.7,0,0,1-4.9,12A22.1,22.1,0,0,0,10.9,71c2-2.5,3.5-6.6,4.4-10.6Zm11.1-1.2a42.3,42.3,0,0,1,3.9,11.7l-4.1,1.4a48.2,48.2,0,0,0-3.6-11.9Z" transform="translate(0 -1.2)"/><path class="cls-1" d="M69.9,49.9v2C69.4,68,69,73.7,67.5,75.6a5.1,5.1,0,0,1-3.4,2,50.7,50.7,0,0,1-5.7.1A8.7,8.7,0,0,0,57,73.5c2.3.2,4.4.2,5.4.2a2.3,2.3,0,0,0,1.6-.6c1-1.2,1.5-6.6,1.9-19.3H58.2A33.1,33.1,0,0,1,55,59.5a26,26,0,0,0-2.8-2V74.3H42.6v2.6H38.7V50.2h4.1a30.7,30.7,0,0,0,1-5.8l4.7.6c-.6,1.8-1.2,3.6-1.8,5.2h5.5V56a38.3,38.3,0,0,0,4.9-11.6l4.1,1c-.4,1.5-.9,3-1.4,4.5Zm-21.6,4H42.6v5.9h5.7Zm0,16.6v-7H42.6v7Zm12-1.9a65.2,65.2,0,0,0-5-8.3l3.3-1.9a84,84,0,0,1,5.3,7.9Z" transform="translate(0 -1.2)"/><path class="cls-1" d="M14.1,106.9,10.3,108v8.4c0,2.2-.4,3.3-1.7,4s-3.3.8-6.2.7a13.3,13.3,0,0,0-1.3-4h4c.7,0,.8-.1.8-.7v-7.2a38.9,38.9,0,0,0-4,1l-1-4.4,5-1.1V98.6H1.4V94.4H5.9V87.6h4.4v6.8h3.5v4.2H10.3v5l3.3-.8Zm19.7-4.8A29.2,29.2,0,0,1,29.4,114a18.9,18.9,0,0,0,5.6,3.5,22,22,0,0,0-3,3.7,22.9,22.9,0,0,1-5.4-3.8,21.9,21.9,0,0,1-5.5,3.9,16,16,0,0,0-2.1-2.6v2.4H14.8V88.9H33a12.6,12.6,0,0,1-.1,1.6c-.1,5-.5,7.2-1.4,8.2a4,4,0,0,1-3.2,1.2H22.7a9.5,9.5,0,0,0-1.1-3.5l4.8.3a1.8,1.8,0,0,0,1.4-.4c.3-.4.6-1.4.7-3.5H19v8.6H30.3l.8-.2ZM19,117.8a17.5,17.5,0,0,0,4.8-3.5,32.2,32.2,0,0,1-4.5-9.1H19Zm4.3-12.6a24.5,24.5,0,0,0,3.2,5.7,19.2,19.2,0,0,0,2.4-5.7Z" transform="translate(0 -1.2)"/><path class="cls-1" d="M66.8,121.2H62.4v-1.6H48.9v1.6H44.6V110.1c-1.7.6-3.5,1-5.3,1.5a15.6,15.6,0,0,0-2.2-4A48.8,48.8,0,0,0,49,103.7c-1.4-1.3-3.1-2.6-4.4-3.7l3.3-2.4a57.7,57.7,0,0,1,5.1,3.9A27,27,0,0,0,60.3,95H48.8a40,40,0,0,1-8,5.4,14.1,14.1,0,0,0-3-3.4,27,27,0,0,0,12-9.6l4.8,1-2,2.7H63.1l.7-.2,3,1.8a30.1,30.1,0,0,1-11.6,12.4H66.8Zm-4.4-5.4V109H48.9v6.8Z" transform="translate(0 -1.2)"/><path class="cls-1" d="M84.3,88.9a43.7,43.7,0,0,1-2.7,6.4v26.1H77.8V102c-.9,1.2-1.8,2.4-2.7,3.4a21.2,21.2,0,0,0-2.2-4.2,38.4,38.4,0,0,0,7.6-13.5Zm22.1,4.3v3.5H83.3V93.2H93.6a24.9,24.9,0,0,0-2.2-4.3L95,87.5a28.8,28.8,0,0,1,2.6,4.8l-2,.9Zm-21.1,16h19v11.9h-3.8v-1H88.9v1.1H85.3Zm18.6-7.3H85.8V98.6h18.1Zm-18.1,1.9h18.1v3.3H85.8Zm3.1,8.8v4h11.6v-4Z" transform="translate(0 -1.2)"/><path class="cls-1" d="M109.2,117.6a43.8,43.8,0,0,0,3.4-7.6l3.8,1.6a56.7,56.7,0,0,1-3.3,7.9Zm15.7-9.2H114.6V90.8h8.3c.3-1.2.7-2.5.9-3.6l5.2.7c-.5,1.1-1.1,2-1.6,2.9h9.9v17.6H126.9a21.8,21.8,0,0,1,3.8,4.7l-3.5,2.1a23,23,0,0,0-4.3-5.7Zm5.1,8.3c1.7,0,2-.5,2.2-3.9a10.9,10.9,0,0,0,3.9,1.5c-.5,5.1-1.8,6.3-5.8,6.3h-6.8c-5.1,0-6.4-1.2-6.4-5v-5h4.4v4.9c0,1.1.3,1.2,2.4,1.2Zm-11.3-21h14.2V94H118.7Zm0,4.7h14.2V98.8H118.7Zm0,4.8h14.2v-1.7H118.7Zm19.8,4.1a31,31,0,0,1,3.9,7.7l-4.1,1.8a30.1,30.1,0,0,0-3.6-7.9Z" transform="translate(0 -1.2)"/><rect class="cls-2" y="134.8" width="64" height="16"/></g></g></svg>