<svg xmlns="http://www.w3.org/2000/svg" viewBox="0 0 156.7 151.2"><defs><style>.cls-1{fill:#fff;}.cls-2{fill:#ff9000;}</style></defs><title>title3</title><g id="图层_2" data-name="图层 2"><g id="图层_1-2" data-name="图层 1"><path class="cls-1" d="M10.4,21.3A131,131,0,0,1,4.7,33.2L1,30.6H.9A91.8,91.8,0,0,0,7.1,18.7ZM6.9,12.6a52.4,52.4,0,0,0-5.5-8l3.4-2a54.6,54.6,0,0,1,5.9,7.7Zm19,8.7c1.7,4.5,4.7,8,9.4,9.6a16.9,16.9,0,0,0-2.8,3.8c-5-2.1-8.1-6-10.1-11.2A20.1,20.1,0,0,1,12.2,34.9,17.2,17.2,0,0,0,9,31.4c5.8-2.6,8.4-6.2,9.5-10.1H11.3V17.2h8c0-1.2.1-2.4.1-3.6v-3H12.9V6.5h6.5V1.2h4.5V6.5h7.9V17.2h3v4.1Zm-2-7.6c0,1.2-.1,2.3-.2,3.5h4V10.6H23.9Z" transform="translate(0 -0.8)"/><path class="cls-1" d="M56.2,29.8a30.2,30.2,0,0,0,4.3.2H70.8a12.3,12.3,0,0,0-1.6,4.3H60.3c-6.8,0-11.7-1.1-15-6.3a18.2,18.2,0,0,1-4.8,6.9A20,20,0,0,0,37,32c3.9-2.9,5.7-7.9,6.3-14l4.4.4c-.2,1.5-.5,3-.8,4.4a10.1,10.1,0,0,0,4.9,5.7V16.3H44.1V12.2H63.9v4.1H56.2v4.3h9.9v4H56.2ZM42.8,14H38.6V5H52c-.4-1-.8-2-1.3-3L55,.8A19.5,19.5,0,0,1,56.9,5H69.4v9H65V9H42.8Z" transform="translate(0 -0.8)"/><path class="cls-1" d="M16.1,52c-.6,6.3-1.7,11.4-3.6,15.5a37.2,37.2,0,0,1,4,4.1l-2.8,3.7a27,27,0,0,0-3.3-3.8A23.2,23.2,0,0,1,3.3,78,15,15,0,0,0,.6,74.6a17,17,0,0,0,6.7-6.1C5.4,66.9,3.5,65.3,1.7,64c.7-2.4,1.5-5.4,2.1-8.6H1.3V51.5H4.6c.4-2.4.7-4.8.9-7l4.3.3c-.3,2.1-.7,4.4-1.1,6.7h4.7ZM7.9,55.4a60.5,60.5,0,0,1-1.6,7l2.9,2.3a31.7,31.7,0,0,0,2.4-9.3Zm26.9,7.9H27.6V73.4c0,2.2-.5,3.2-2,3.9s-3.5.7-6.3.7a16.6,16.6,0,0,0-1.4-4.1h4.5c.6,0,.7-.2.7-.7v-10H15.5V59.2h7.6V55.8a25.3,25.3,0,0,0,4.4-5.3H17V46.6H30.3l1.1-.2,2.8,2.1a43.8,43.8,0,0,1-6.6,8v2.7h7.2Z" transform="translate(0 -0.8)"/><path class="cls-1" d="M68.8,49.2a61.7,61.7,0,0,1-12.4,10V73.1c0,2.4-.6,3.6-2.3,4.2s-4.4.8-7.8.7a19.7,19.7,0,0,0-1.8-4.3h6.3c.8,0,1.1-.2,1.1-.8V57a43.2,43.2,0,0,0,8.3-5.9H39.4V46.9h25l.9-.2Z" transform="translate(0 -0.8)"/><path class="cls-1" d="M7.6,108.6A33.3,33.3,0,0,1,4,118.3l-2.9-2.1a23.2,23.2,0,0,0,3.1-8.3ZM18.2,95.4H1.7V91.7H8.5a32.4,32.4,0,0,0-1.3-3.3l4-.8a35.6,35.6,0,0,1,1.7,4.1h5.3Zm-5.9,11.5v10.2c0,1.7-.3,2.6-1.4,3.2a9.2,9.2,0,0,1-4.4.7,15.2,15.2,0,0,0-1.2-3.6H8c.4,0,.5-.1.5-.5V106.9H3.3V97.3H16.9v9.6ZM7,103.6h6v-3H7Zm8.8,3.9a27.8,27.8,0,0,1,2.6,6.4l-3.1,1.4a29.6,29.6,0,0,0-2.5-6.5Zm15.1,9.8h.6c.2-.1.3-.4.4-1.1a35.7,35.7,0,0,0,.1-3.9,11.6,11.6,0,0,0,3.3,1.8,16.1,16.1,0,0,1-.5,4.4,2.6,2.6,0,0,1-1.3,1.7,5.4,5.4,0,0,1-2.2.4H29.1a4.1,4.1,0,0,1-2.5-.8c-.6-.6-.9-1.4-.9-3.9v-8.3c-1.2,5.3-3.3,10.2-7.1,13.8a10.4,10.4,0,0,0-2.9-2.6c4.8-4.5,6.5-11.1,7.2-18.1H18.6V96.7h4.5c.2-3,.1-6.1.2-9h3.9c0,2.9,0,6-.2,9h7.6v3.9H26.7a11,11,0,0,1-.2,1.8h2.8V116c0,.6,0,1,.2,1.1s.3.2.5.2Zm.2-21.1a28.2,28.2,0,0,0-3.6-5.7l2.7-1.6a31,31,0,0,1,3.9,5.5Z" transform="translate(0 -0.8)"/><path class="cls-1" d="M44.9,98.8c.7-1.2,1.4-2.5,2-3.8l3.4,2.1a68.4,68.4,0,0,1-6.5,9.7l5.4-1a23.6,23.6,0,0,0-.2,3.6c-8.3,1.6-9.7,2-10.6,2.6s-.8-2.7-1.2-3.7,1.6-1,2.7-2.3a33,33,0,0,0,2.8-3.6c-3.1.3-4,.5-4.5.8s-.9-2.8-1.4-3.9,1.3-.9,2-2.1A39.7,39.7,0,0,0,43,87.3l4,1.9A51.1,51.1,0,0,1,41.8,99Zm-7.7,16.5c3-.5,7.5-1.5,11.9-2.5l.4,3.5-11.6,3Zm33.5.8v3.7H50.3V88.9h3.9v27.2Zm-10.1-9.6a24.3,24.3,0,0,1-4.2,6.5,28.3,28.3,0,0,0-1.6-3.6,24.4,24.4,0,0,0,4.8-7.3H54.9V98.5h5.7V87.9h3.5V98.5h6.2v3.6H64.7c1.7,1.9,5,6.1,5.8,7.3l-2.6,2.8a48.1,48.1,0,0,0-3.8-6.4v9.4H60.6Zm-3.8-9.1a39.3,39.3,0,0,0-1.7-6.5l2.7-.6a45.5,45.5,0,0,1,1.9,6.4ZM70.2,91c-1,2.2-2.1,4.9-3,6.5l-2.4-.8a41.2,41.2,0,0,0,2-6.5Z" transform="translate(0 -0.8)"/><path class="cls-1" d="M84.7,105a20.6,20.6,0,0,0,.2,3.6c-8.1,2.2-9.6,2.7-10.4,3.4a36.6,36.6,0,0,0-1.2-3.5c.9-.2,1.7-1,2.7-2.3s1.5-2.1,2.7-3.8a17.2,17.2,0,0,0-4.5.8A25.2,25.2,0,0,0,73,99.6c.7-.2,1.3-1,2-2.1a39.3,39.3,0,0,0,4.5-9.9l3.7,1.7A47.8,47.8,0,0,1,77.9,99l3-.2c.6-1.2,1.3-2.5,1.9-3.8l3.1,2a66,66,0,0,1-5.7,9.1Zm.7,9.7-11.2,4.5-.9-4c2.8-.8,7.2-2.4,11.3-4ZM97.2,112c-1.3,3.4-4.2,6.8-9.9,9.3a14.8,14.8,0,0,0-2.5-3.1,16.2,16.2,0,0,0,8-6.2H85.7v-3.7h4.4a17.7,17.7,0,0,0-4.1-2.9l1.9-2.1a28.3,28.3,0,0,1,4.6,3.1l-1.6,1.9h3.3a16.9,16.9,0,0,0,.4-3.8v-1.3l-1.7,2a23.7,23.7,0,0,0-4.2-2.9l1.7-2a17.5,17.5,0,0,1,4.2,2.6v-2.2h3.9v3.9a23.6,23.6,0,0,1-.2,3.7h7.5V112Zm3.4-8.5,1.1-3.7H86.4V96.2h7.4V94H87.7V90.4h6.1V87.6H98v2.8h6.2V94H98v2.2h5.5l2.8.5a71.2,71.2,0,0,1-2.4,7.7Zm-1.4,9a40.8,40.8,0,0,1,7.6,6.2l-2.8,2.5a39.7,39.7,0,0,0-7.3-6.4Z" transform="translate(0 -0.8)"/><path class="cls-1" d="M121.1,111.8h-6.8V115h-3.9V90.7h10.7Zm-6.8-17.2v13.3h2.9V94.6Zm22.4,22.1c1.9,0,2.3-.9,2.6-4.6a8.7,8.7,0,0,0,3.8,1.7c-.5,5-1.8,6.8-6,6.8h-7.5c-4.7,0-6.2-1.3-6.2-6.4V89.8h18.2v19.7h-4.1v-2.1h-9.8v6.8c0,2.2.2,2.5,2.4,2.5Zm-9-23v9.8h2.8V93.7Zm9.8,0h-3.1v9.8h3.1Z" transform="translate(0 -0.8)"/><path class="cls-1" d="M149.3,114.9a3.7,3.7,0,0,1,7.4,0,3.7,3.7,0,0,1-7.4,0Zm.6-18.4-.2-5.3h6.6l-.2,5.3-1.2,12.3h-3.7Z" transform="translate(0 -0.8)"/><rect class="cls-2" y="135.2" width="64" height="16"/></g></g></svg>