<svg xmlns="http://www.w3.org/2000/svg" viewBox="0 0 141.9 149.5"><defs><style>.cls-1{fill:#fff;}.cls-2{fill:#ff9000;}</style></defs><title>title1</title><g id="图层_2" data-name="图层 2"><g id="图层_1-2" data-name="图层 1"><path class="cls-1" d="M3.3,5H12c5.9,0,10.5,2.1,10.5,8.4s-4.6,8.8-10.3,8.8H8.6v9.5H3.3Zm8.5,13c3.7,0,5.4-1.5,5.4-4.6s-1.9-4.1-5.6-4.1h-3V18Z" transform="translate(0 -2.5)"/><path class="cls-1" d="M26.4,5.4a2.9,2.9,0,0,1,3.1-2.9,3,3,0,0,1,3.2,2.9,3,3,0,0,1-3.2,2.9A2.9,2.9,0,0,1,26.4,5.4Zm.5,6.1h5.2V31.7H26.9Z" transform="translate(0 -2.5)"/><path class="cls-1" d="M36.5,21.6c0-6.7,4.9-10.6,10.3-10.6a8.8,8.8,0,0,1,5.9,2.3l-2.5,3.4a4.6,4.6,0,0,0-3.1-1.4c-3.1,0-5.2,2.5-5.2,6.3s2.1,6.3,5,6.3a6.3,6.3,0,0,0,4-1.7L53,29.7a10.3,10.3,0,0,1-6.6,2.5C40.8,32.2,36.5,28.3,36.5,21.6Z" transform="translate(0 -2.5)"/><path class="cls-1" d="M56.8,3h5.1V20.2h.2L69,11.5h5.8l-7,8.3,7.7,11.9H69.7l-4.9-8.4-2.9,3.3v5.1H56.8Z" transform="translate(0 -2.5)"/><path class="cls-1" d="M12.7,45.8a70.4,70.4,0,0,1-3.4,7.4V77.9H5.1V59.5a24.3,24.3,0,0,1-2.4,3A21.3,21.3,0,0,0,.4,58,37,37,0,0,0,8.6,44.5Zm12.7,9V73.2c0,2.1-.3,3.3-1.6,4s-3,.8-5.3.8A18.4,18.4,0,0,0,17,73.7h3.5c.5,0,.7-.2.7-.6V54.8H17a28.7,28.7,0,0,1-3.4,5.5,23,23,0,0,0-3.4-2.8c2.7-3.1,4.8-8,6.1-13l4.1,1a46.4,46.4,0,0,1-1.6,5.3h13l3,.6c-.4,2.9-1,6.2-1.5,8.3L29.7,59c.1-1.1.4-2.6.5-4.2Zm-6,6.5a34.7,34.7,0,0,1-4.9,12A22.1,22.1,0,0,0,10.9,71c2-2.5,3.5-6.6,4.4-10.6Zm11.1-1.2a42.3,42.3,0,0,1,3.9,11.7l-4.1,1.4a48.2,48.2,0,0,0-3.6-11.9Z" transform="translate(0 -2.5)"/><path class="cls-1" d="M70.4,64.5v3.3H37.5V64.5h8.3a9.8,9.8,0,0,0-.8-1.8l1.5-.4H42.8V55.2H65.6v7.1H63.5a11.8,11.8,0,0,1-1.4,2.2ZM51.7,49.6H38.8V46.5H51.7V44.4H56v2.1H69.3v3.1H56v1.5H67.1V54H41.3V51.1H51.7ZM42.1,69.1H66.3V78H61.9V77H46.3v1H42.1ZM46.3,72v2.2H61.9V72Zm.6-12.3H61.2V57.9H46.9Zm2.3,2.6a15,15,0,0,1,1.1,2.2h7.4a20.4,20.4,0,0,0,.9-2.2Z" transform="translate(0 -2.5)"/><path class="cls-1" d="M84,72.8a40.8,40.8,0,0,0-2.4-4.5,25.4,25.4,0,0,1-6.1,7.2,14.7,14.7,0,0,0-2.9-3.2,23.2,23.2,0,0,0,6.6-8c-1.9-2.9-4-5.8-5.8-8.3l3-2.4c1.5,2,3.1,4.1,4.7,6.4a49.4,49.4,0,0,0,2.2-8H73.5V48.2H85.1l2.7.9a58.7,58.7,0,0,1-3.9,14.9c1.4,2.2,2.6,4.3,3.5,5.9Zm14.1-15a18.5,18.5,0,0,1-.1,2.3c1.4,6.6,4,11.9,9.2,14.3a16.1,16.1,0,0,0-2.7,3.6c-4-2.1-6.4-5.6-8.1-10.1a20.6,20.6,0,0,1-8.7,10.2,12.2,12.2,0,0,0-3-3C93.2,70,94,62.5,94,57.7V55h4.1Zm-4.9-4.5A25.2,25.2,0,0,1,90,60.5a29.3,29.3,0,0,0-3.4-2.4c2.4-3.1,3.6-8.3,4.1-13.7l4.1.5c-.2,1.6-.4,3.1-.7,4.5h9.6l2.9.8a62.9,62.9,0,0,1-2.9,9.2l-3.4-1.1a37,37,0,0,0,1.4-4.9Z" transform="translate(0 -2.5)"/><path class="cls-1" d="M141.9,49.9v2c-.5,16.1-.9,21.8-2.4,23.7a5.1,5.1,0,0,1-3.4,2,50.7,50.7,0,0,1-5.7.1,8.7,8.7,0,0,0-1.4-4.2c2.3.2,4.4.2,5.4.2a2.3,2.3,0,0,0,1.6-.6c1-1.2,1.5-6.6,1.9-19.3h-7.7a33.1,33.1,0,0,1-3.2,5.7,26,26,0,0,0-2.8-2V74.3h-9.6v2.6h-3.9V50.2h4.1a30.7,30.7,0,0,0,1-5.8l4.7.6c-.6,1.8-1.2,3.6-1.8,5.2h5.5V56a38.3,38.3,0,0,0,4.9-11.6l4.1,1c-.4,1.5-.9,3-1.4,4.5Zm-21.6,4h-5.7v5.9h5.7Zm0,16.6v-7h-5.7v7Zm12-1.9a65.2,65.2,0,0,0-5-8.3l3.3-1.9a84,84,0,0,1,5.3,7.9Z" transform="translate(0 -2.5)"/><path class="cls-1" d="M18.6,96.1c-.8,1.7-1.5,3.6-2.2,5.1h4.2V105H1.6v-3.8H6.2a34.5,34.5,0,0,0-1.8-5.1l2.9-.7H2.5V91.6H9.3a17.5,17.5,0,0,0-1.2-3.2l4-1.1a38.3,38.3,0,0,1,1.7,4.3h6.1v3.8H15.7ZM3.2,107.6h16V121H15v-1.4H7.3v1.6H3.2Zm4.1,3.9v4.3H15v-4.3Zm.9-16.1a30.7,30.7,0,0,1,2,5.2l-2.2.6h4.3a56.6,56.6,0,0,0,2-5.8ZM34.8,91c-1.2,3.4-2.7,7.6-4.1,10.7a12,12,0,0,1,3.5,8.4c0,2.6-.6,4.3-1.9,5.3a6.2,6.2,0,0,1-2.4.8,8.7,8.7,0,0,1-2.8.1,11.2,11.2,0,0,0-1-3.9h2a2.8,2.8,0,0,0,1.3-.3c.6-.4.8-1.3.8-2.5s-.7-4.6-3.5-7.4c1.1-2.7,2.2-6.3,3-9.1h-4v28H21.9V89.3h9.3l.6-.2Z" transform="translate(0 -2.5)"/><path class="cls-1" d="M39,95.5h4.3v25.6H39Zm4.3-8.2a59.2,59.2,0,0,1,5.4,6.8l-3.6,2.5a40,40,0,0,0-5-7Zm25.9,29c0,2.4-.6,3.5-2.1,4.2s-3.7.7-7.1.7a15.3,15.3,0,0,0-1.4-4.1,32.9,32.9,0,0,0,5.3.1c.7,0,.9-.2.9-.9V92.9H49.1V88.8H69.2Z" transform="translate(0 -2.5)"/><path class="cls-1" d="M85.1,111.8H78.3V115H74.4V90.7H85.1ZM78.3,94.6v13.3h2.9V94.6Zm22.4,22.1c1.9,0,2.3-.9,2.6-4.6a8.7,8.7,0,0,0,3.8,1.7c-.5,5-1.8,6.8-6,6.8H93.6c-4.7,0-6.2-1.3-6.2-6.4V89.8h18.2v19.7h-4.1v-2.1H91.7v6.8c0,2.2.2,2.5,2.4,2.5Zm-9-23v9.8h2.8V93.7Zm9.8,0H98.4v9.8h3.1Z" transform="translate(0 -2.5)"/><path class="cls-1" d="M113.3,114.9a3.7,3.7,0,0,1,7.4,0,3.7,3.7,0,0,1-7.4,0Zm.6-18.4-.2-5.3h6.6l-.2,5.3-1.2,12.3h-3.7Z" transform="translate(0 -2.5)"/><rect class="cls-2" y="133.5" width="64" height="16"/></g></g></svg>