<svg xmlns="http://www.w3.org/2000/svg" viewBox="0 0 197 149.6"><defs><style>.cls-1{fill:#fff;}.cls-2{fill:#ff9000;}</style></defs><title>title2</title><g id="图层_2" data-name="图层 2"><g id="图层_1-2" data-name="图层 1"><path class="cls-1" d="M19.9,21.8l-.6,1.7H32.1v7.4c0,1.7-.3,2.7-1.5,3.2s-2.6.6-4.5.6a12.1,12.1,0,0,0-1.2-3.5h2.5c.4,0,.5-.1.5-.4v-4H24v7.6H20.1V26.9H16.3v7.6H12.5V26.9H8.8v7.8h-4V23.5H15.2l.3-1.7H2.1V18.5H34v3.3ZM6,14H2.2V6.9H15.9V5.6H4.7V2.4H31.2V5.6H19.9V6.9H33.8V14H29.9V9.8h-10v7.7h-4V9.8H6Zm.5.7h8.1v2.5H6.5Zm8.1-1.2H7.3V11h7.3Zm14-2.5v2.5H21.2V11Zm-7.4,3.7h8.2v2.5H21.2Z" transform="translate(0 -2.4)"/><path class="cls-1" d="M63.5,24a15.4,15.4,0,0,1-3.3,4.5c3.6,1,6.7,2,9.2,2.9l-3.3,3.3c-2.7-1-6.1-2.2-10.1-3.3-3.9,1.9-9.2,2.9-16.1,3.4a10.9,10.9,0,0,0-1.7-3.6A53.1,53.1,0,0,0,50,29.7l-7.7-1.8A33.2,33.2,0,0,0,45.4,24H37.7V20.3H47.9a19.8,19.8,0,0,0,1.1-2H39.9V8.2h7.8v-2H38.2V2.5H69.6V6.2H59.8v2h8.6V18.3H51.9l1.8.4a8.3,8.3,0,0,1-.9,1.6H70.3V24ZM43.9,14.9h3.8V11.6H43.9ZM50.5,24l-1.3,1.8,6.3,1.5A11.2,11.2,0,0,0,58.7,24ZM51.7,8.2h4.1v-2H51.7Zm4.1,6.7V11.6H51.7v3.3Zm4-3.3v3.3h4.3V11.6Z" transform="translate(0 -2.4)"/><path class="cls-1" d="M34.8,69.8H30.7v3.6c0,2.1-.4,3.3-1.9,3.9s-3.6.7-6.7.7a15.9,15.9,0,0,0-1.4-4h4.9c.6,0,.9-.2.9-.8V69.8H9.5V78H5.3V69.8H1.2v-4H5.3V52.6H15.7V50.3H2.6v-4H33.4v4H20v2.3H30.7V65.8h4.1ZM9.5,56.5v2.8h6.2V56.5Zm0,9.3h6.2V62.9H9.5ZM20,56.5v2.8h6.5V56.5Zm6.5,9.3V62.9H20v2.9Z" transform="translate(0 -2.4)"/><path class="cls-1" d="M39.3,48.2H48c5.9,0,10.5,2.1,10.5,8.4s-4.6,8.8-10.3,8.8H44.6v9.5H39.3Zm8.5,13c3.7,0,5.4-1.5,5.4-4.6s-1.9-4.1-5.6-4.1h-3v8.7Z" transform="translate(0 -2.4)"/><path class="cls-1" d="M62.4,48.6a2.9,2.9,0,0,1,3.1-2.9,2.9,2.9,0,1,1,0,5.8A2.9,2.9,0,0,1,62.4,48.6Zm.5,6.1h5.2V74.9H62.9Z" transform="translate(0 -2.4)"/><path class="cls-1" d="M72.5,64.8c0-6.7,4.9-10.6,10.3-10.6a8.8,8.8,0,0,1,5.9,2.3l-2.5,3.4a4.6,4.6,0,0,0-3.1-1.4c-3.1,0-5.2,2.5-5.2,6.3s2.1,6.3,5,6.3a6.3,6.3,0,0,0,4-1.7L89,72.9a10.3,10.3,0,0,1-6.6,2.5C76.8,75.4,72.5,71.5,72.5,64.8Z" transform="translate(0 -2.4)"/><path class="cls-1" d="M92.8,46.2h5.1V63.4h.2l6.9-8.7h5.8l-7,8.3,7.7,11.9h-5.8l-4.9-8.4-2.9,3.3v5.1H92.8Z" transform="translate(0 -2.4)"/><path class="cls-1" d="M146.3,58.5v4.7H113.2V58.5Z" transform="translate(0 -2.4)"/><path class="cls-1" d="M169.5,46.2l-1.1,1.7A41.6,41.6,0,0,0,183,57.6a12,12,0,0,0-3.1,4,45.5,45.5,0,0,1-14.1-10.4,41.7,41.7,0,0,1-14,10.4,17.4,17.4,0,0,0-3.2-4.2c6.9-2.5,13.4-7,17.1-13ZM163.4,56h4.5V78h-4.5Z" transform="translate(0 -2.4)"/><path class="cls-1" d="M34.6,93.4H29.5a14.6,14.6,0,0,1,1.7,2.7l-3.6,1.5h3.5v9.1H19.7v2.1H32.9a10.6,10.6,0,0,1-.1,1.5c-.4,4.8-.8,7.2-1.7,8.1a3.9,3.9,0,0,1-2.8,1.3H23.8a9.3,9.3,0,0,0-1.2-3.9,27.9,27.9,0,0,0,3.6.2,1.8,1.8,0,0,0,1.3-.3,7.8,7.8,0,0,0,.8-3.3H19.7v8.8H15.5v-7a32,32,0,0,1-10.9,6.9,17.6,17.6,0,0,0-2.7-3.4,33,33,0,0,0,10.4-5.3H4.6a77.2,77.2,0,0,0,1.3-9.3h9.6v-2H4.6V97.6L1.4,95.8a21.5,21.5,0,0,0,5.8-8.5l3.9,1-.9,2.1h8.3v3.1H13.8l1.3,2.7-3.5,1.4h8.5c-1-.7-2.5-1.5-3.4-2a17.7,17.7,0,0,0,4.9-8.3l4.1,1a9.6,9.6,0,0,1-.7,2h9.6Zm-26.2.1a34.3,34.3,0,0,1-3.2,4.1h6.1a16,16,0,0,0-1.8-4.1Zm7.1,13.2H9.6c-.1.7-.1,1.4-.2,2.1h6.1Zm11.4-5.6H19.7v2h7.2Zm.6-3.5a25.4,25.4,0,0,0-2.6-4.2H23.5a38.2,38.2,0,0,1-2.8,4.2Z" transform="translate(0 -2.4)"/><path class="cls-1" d="M70,113.3v4.9H38v-4.9ZM67,92.5v4.7H41V92.5Z" transform="translate(0 -2.4)"/><path class="cls-1" d="M73.4,117.2a27.6,27.6,0,0,0,3.2-8.3l3.8,1.3a35.4,35.4,0,0,1-3.1,9ZM87.7,96.1H74v-4H87.7V87.6h4.5v4.5h13.9v4H92.2v4.5H104v4.1H88.7a33.3,33.3,0,0,1,7.6,5.6l-3.1,2.8a38,38,0,0,0-7.9-6.1l2.7-2.3H76.3v-4.1H87.7Zm6.5,20.8c1.7,0,2-.6,2.2-3.9a15.1,15.1,0,0,0,3.9,1.5c-.5,4.9-1.8,6.2-5.8,6.2H87.7c-5,0-6.3-1.2-6.3-5.1v-7h4.2v7c0,1.1.4,1.3,2.5,1.3Zm7.8-8.3a76.2,76.2,0,0,1,4.5,9.1l-4.2,1.7a61.1,61.1,0,0,0-4.2-9.4Z" transform="translate(0 -2.4)"/><path class="cls-1" d="M115.8,98.8c0,6.3-.5,16.3-3.6,22.7a15,15,0,0,0-3.3-2.3c2.7-5.9,3-14.6,3-20.4V88.7h29.4V92H127.5l3.3.5a9.1,9.1,0,0,0-.7,1.4h9V104h-3.7c1.7,1.2,4.1,2.8,5.4,3.9l-3,2.4a63.3,63.3,0,0,0-5.7-4.5l2.4-1.8h-4v2.9c0,1.6-.3,2.4-1.5,2.9s-2.7.5-4.9.5a14.3,14.3,0,0,0-1.2-3.1H126c.5,0,.6-.1.6-.5V104H121l3.4,1.2a38.8,38.8,0,0,1-5.6,5.2l-3.1-2.4a22.5,22.5,0,0,0,5-4h-2.3V93.9h7.1l.3-1.9h-10Zm-1.3,19.1a22.5,22.5,0,0,0,2.8-6.7l3.1,1.2a24.8,24.8,0,0,1-2.7,6.9Zm17.6-.6c1.3,0,1.6-.4,1.7-2.9a12.6,12.6,0,0,0,3.4,1.3c-.4,3.9-1.5,4.9-4.7,4.9h-5.9c-4.4,0-5.4-1-5.4-4.4v-4.7h3.7v4.7c0,.9.3,1.1,2,1.1ZM135,96.2H122.3v1.6H135Zm-12.7,5.4H135V100H122.3Zm6.8,8.5c1.3,1.2,3.1,3,4,4l-3,2c-.8-1-2.5-2.8-3.8-4.1Zm9.7.4,3.9,5.7-3.5,1.6c-.8-1.6-2.4-4.1-3.6-6Z" transform="translate(0 -2.4)"/><path class="cls-1" d="M157.1,111.8h-6.8V115h-3.9V90.7h10.7Zm-6.8-17.2v13.3h3.1V94.6ZM171.8,114H158.2v-3.8h13.6Zm6.3-10.9a13.1,13.1,0,0,1-.1,1.7c-.7,9.5-1.5,13.4-2.8,14.7a4.1,4.1,0,0,1-2.9,1.5H168a10.9,10.9,0,0,0-1.1-3.8,27.1,27.1,0,0,0,3.6.2,1.7,1.7,0,0,0,1.3-.5c.7-.8,1.4-3.6,2-10.2H159.3c.5-3.1,1-8.2,1.3-12l4,.2c-.2,2.6-.5,5.6-.8,8.2h6.3c.4-3.2.8-6.9,1-9.8H158.9V89.4h13.5l3.1.2c-.3,4.1-.8,9.1-1.3,13.6Z" transform="translate(0 -2.4)"/><path class="cls-1" d="M191.9,98.1c0-1.9-1.2-3.1-3.3-3.1a6,6,0,0,0-4.5,2.3l-2.9-2.8a10.4,10.4,0,0,1,8-3.8c4.5,0,7.8,2.4,7.8,6.9s-6.6,6.1-6.1,11.2h-4.6C185.5,103,191.9,101.7,191.9,98.1Zm-3.3,13.2a3.6,3.6,0,1,1-3.7,3.5A3.5,3.5,0,0,1,188.6,111.3Z" transform="translate(0 -2.4)"/><rect class="cls-2" y="133.6" width="64" height="16"/></g></g></svg>