<svg xmlns="http://www.w3.org/2000/svg" xmlns:xlink="http://www.w3.org/1999/xlink" viewBox="0 0 360 560"><defs><style>.cls-1,.cls-10{fill:none;}.cls-2{clip-path:url(#clip-path);}.cls-3{fill:#151c51;}.cls-4{fill:url(#未命名的渐变_7);}.cls-5{fill:url(#未命名的渐变_167);}.cls-6{fill:url(#未命名的渐变_165);}.cls-7{fill:url(#未命名的渐变_165-2);}.cls-8{fill:url(#未命名的渐变_163);}.cls-9{fill:url(#未命名的渐变_163-2);}.cls-10{stroke:#f18c1a;stroke-miterlimit:10;stroke-width:2.9px;}.cls-11{fill:url(#未命名的渐变_118);}.cls-12{fill:#fff;}.cls-13{fill:#ff9000;}</style><clipPath id="clip-path"><rect class="cls-1" width="360" height="560"/></clipPath><radialGradient id="未命名的渐变_7" cx="-85.29" cy="63.43" fx="-448.57993488364747" r="399.41" gradientUnits="userSpaceOnUse"><stop offset="0.7" stop-color="#151c51"/><stop offset="0.85" stop-color="#161d53"/><stop offset="0.9" stop-color="#19205a"/><stop offset="0.94" stop-color="#1f2565"/><stop offset="0.97" stop-color="#272d76"/><stop offset="0.99" stop-color="#32378c"/><stop offset="1" stop-color="#353a93"/></radialGradient><linearGradient id="未命名的渐变_167" x1="232.74" y1="391.28" x2="-52.72" y2="227.17" gradientUnits="userSpaceOnUse"><stop offset="0" stop-color="#f18c1a"/><stop offset="0.23" stop-color="#f18d1c" stop-opacity="0.99"/><stop offset="0.37" stop-color="#f29124" stop-opacity="0.95"/><stop offset="0.48" stop-color="#f29832" stop-opacity="0.9"/><stop offset="0.58" stop-color="#f4a245" stop-opacity="0.81"/><stop offset="0.68" stop-color="#f5ae5e" stop-opacity="0.7"/><stop offset="0.76" stop-color="#f7be7d" stop-opacity="0.57"/><stop offset="0.84" stop-color="#f9d0a2" stop-opacity="0.41"/><stop offset="0.92" stop-color="#fce5cc" stop-opacity="0.22"/><stop offset="0.99" stop-color="#fffdfb" stop-opacity="0.02"/><stop offset="1" stop-color="#fff" stop-opacity="0"/></linearGradient><linearGradient id="未命名的渐变_165" x1="227.1" y1="401.43" x2="-58.5" y2="237.23" gradientUnits="userSpaceOnUse"><stop offset="0" stop-color="#f18c1a"/><stop offset="0.7" stop-color="#fff" stop-opacity="0"/></linearGradient><linearGradient id="未命名的渐变_165-2" x1="238.77" y1="381.35" x2="-46.84" y2="217.16" xlink:href="#未命名的渐变_165"/><linearGradient id="未命名的渐变_163" x1="248.13" y1="373.34" x2="-41.05" y2="207.09" gradientUnits="userSpaceOnUse"><stop offset="0" stop-color="#f18c1a"/><stop offset="0.03" stop-color="#f39e3e" stop-opacity="0.84"/><stop offset="0.09" stop-color="#f6b771" stop-opacity="0.62"/><stop offset="0.14" stop-color="#f9cd9c" stop-opacity="0.43"/><stop offset="0.19" stop-color="#fbdfc0" stop-opacity="0.28"/><stop offset="0.25" stop-color="#fdeddb" stop-opacity="0.16"/><stop offset="0.3" stop-color="#fef7ef" stop-opacity="0.07"/><stop offset="0.35" stop-color="#fffdfb" stop-opacity="0.02"/><stop offset="0.4" stop-color="#fff" stop-opacity="0"/></linearGradient><linearGradient id="未命名的渐变_163-2" x1="224.98" y1="413.6" x2="-64.2" y2="247.35" xlink:href="#未命名的渐变_163"/><radialGradient id="未命名的渐变_118" cx="1064.41" cy="1020.36" fx="1015.3806873994168" r="50.07" gradientTransform="matrix(-0.87, -0.5, -0.5, 0.87, 1698.65, 57.31)" gradientUnits="userSpaceOnUse"><stop offset="0.7" stop-color="#151c51"/><stop offset="0.74" stop-color="#191e50"/><stop offset="0.78" stop-color="#26244d"/><stop offset="0.82" stop-color="#3a2f48"/><stop offset="0.86" stop-color="#573e40"/><stop offset="0.9" stop-color="#7d5137"/><stop offset="0.95" stop-color="#ab682c"/><stop offset="0.99" stop-color="#e0831e"/><stop offset="1" stop-color="#f18c1a"/></radialGradient></defs><title>结束</title><g id="图层_1" data-name="图层 1"><g class="cls-2"><rect class="cls-3" x="-0.1" width="360" height="560"/><circle class="cls-4" cx="-68.8" cy="60.7" r="380.7"/><path class="cls-5" d="M-51.1,228.1,232.1,388.8a1.9,1.9,0,0,1,.6,2.5,1.9,1.9,0,0,1-2.5.7h0Z"/><path class="cls-6" d="M-56.9,238.1,226.4,398.9a1.8,1.8,0,1,1-1.8,3.2h0Z"/><path class="cls-7" d="M-45.3,218.1,238.1,378.8a1.8,1.8,0,0,1,.7,2.5,1.8,1.8,0,0,1-2.5.7h0Z"/><path class="cls-8" d="M-39.5,208,247.4,370.8a1.8,1.8,0,1,1-1.8,3.2h0Z"/><path class="cls-9" d="M-62.6,248.3,224.3,411.1a1.8,1.8,0,1,1-1.8,3.2h0Z"/><path class="cls-10" d="M328,402.4c-.7-6.4-29.7-8.3-64.8-4.4s-62.8,12.3-62.1,18.7"/><circle class="cls-11" cx="264.5" cy="409.6" r="46.4"/><path class="cls-10" d="M201.1,416.7c.7,6.4,29.7,8.3,64.7,4.4s62.9-12.3,62.2-18.7"/><rect class="cls-1" width="360" height="640"/><rect class="cls-1" width="360" height="640"/></g><path class="cls-12" d="M48,155.1l-3.5.9v7.5c0,2.5-.5,3.9-2,4.6s-3.6,1-6.5,1a15.9,15.9,0,0,0-1.5-5h3.8c.6,0,.8-.2.8-.8v-6.1l-3.6.9-1.1-5.4,4.7-.9v-5.2H34.9v-5.1h4.2V135h5.4v6.6h3.1v5.1H44.5v4l2.8-.7Zm20-5.3a27.9,27.9,0,0,1-4,11.9,16.3,16.3,0,0,0,5.1,3,19.8,19.8,0,0,0-3.6,4.5,21.1,21.1,0,0,1-4.9-3.3,20,20,0,0,1-5,3.4,13.5,13.5,0,0,0-2.2-2.8V169H48.2V136.3H67.3a15.3,15.3,0,0,1-.1,1.8c-.1,5.1-.5,7.4-1.4,8.5a5.6,5.6,0,0,1-3.7,1.5H56.6a10.3,10.3,0,0,0-1.3-4.2l4.5.2a2,2,0,0,0,1.4-.4c.3-.3.5-1.1.6-2.6H53.4V149H63.7l.9-.2ZM53.4,164.7a17,17,0,0,0,3.8-2.6,34.5,34.5,0,0,1-3.8-7.7Zm4.7-11.1a22.6,22.6,0,0,0,2.4,4.3,18.2,18.2,0,0,0,1.6-4.3Z"/><path class="cls-12" d="M100.8,169.2H95.4v-1.4H83.3v1.3H78V158.4l-4.9,1.4a25.7,25.7,0,0,0-2.7-4.9,49.6,49.6,0,0,0,11.1-3.5l-3.8-3.2,4.1-3c1.4,1,3.1,2.3,4.6,3.6a25.6,25.6,0,0,0,6.5-5.6H82.3a40.9,40.9,0,0,1-7.7,5A18.2,18.2,0,0,0,71,144c5.9-2.5,9.8-5.9,12-9.3l5.9,1.3c-.6.8-1.2,1.7-1.9,2.5h9.3l.9-.3,3.6,2.1a30,30,0,0,1-10.3,12h10.3ZM95.4,163v-6H83.3v6Z"/><path class="cls-12" d="M62.7,207.1c1,0,1.2-.5,1.3-4.1a15.2,15.2,0,0,0,4.7,2c-.5,5.4-1.8,6.9-5.5,6.9h-4c-4.7,0-5.8-1.6-5.8-6.1V200h-4c-.4,6.7-2,10.5-11.9,12.4a12.9,12.9,0,0,0-2.7-4.5c8-1.2,8.9-3.3,9.2-7.9H35.5v-4.8H68V200H58.8v5.8c0,1.2.1,1.3,1.2,1.3ZM41.3,191.2H36v-9.6H48.9c-.3-.8-.7-1.6-1-2.3l5.4-1.6a33.9,33.9,0,0,1,1.8,3.9H67.3v9.6H61.9v-4.6H41.3Zm1.2,2.2v-4.8H60.6v4.8Z"/><path class="cls-12" d="M102.7,190.9a43.6,43.6,0,0,1-6.2,12.6c.8,2.1,1.7,3.3,2.6,3.3s1.1-1.8,1.3-6.2a15.6,15.6,0,0,0,4.4,3c-.8,7-2.4,8.5-6.2,8.5-2.3,0-4.3-1.5-5.8-4.1a30.6,30.6,0,0,1-5.3,4.2,37.8,37.8,0,0,0-3.8-4.3,23.9,23.9,0,0,0,6.8-5.4,69.9,69.9,0,0,1-2.4-14.2H78.7v3.4h8.9s-.1,1.3-.1,1.9c-.1,7.3-.3,10.6-1.1,11.8a4.1,4.1,0,0,1-2.7,1.6,24.9,24.9,0,0,1-4.2.2,11,11,0,0,0-1.3-4.7,26,26,0,0,1-3.3,10.4,22.2,22.2,0,0,0-4.5-3.6c2.7-4.3,2.8-10.6,2.8-15.3V183.2H87.8c-.1-1.7-.1-3.3-.1-5h5.5a41.7,41.7,0,0,0,0,5h4.1a39,39,0,0,0-3.6-2.5l3.1-3.2a31.4,31.4,0,0,1,5.7,3.8l-1.8,1.9h3.8v5.1h-11a63.6,63.6,0,0,0,1.2,8.3,35.4,35.4,0,0,0,2.7-6.9Zm-24,5.6c-.1,1.8-.2,3.8-.5,5.8l2.6.2a1.2,1.2,0,0,0,1.1-.5c.3-.4.4-1.9.5-5.5Z"/><rect class="cls-13" x="33.7" y="222.1" width="64" height="16"/><path class="cls-12" d="M66.4,81.9V67.4c0-.5.1-.5.6-.5A41.7,41.7,0,0,1,76.9,68a25.2,25.2,0,0,1,5.3,1.7c.2.1.3.2.2.4L73.7,91,71,97.6c-.1.2-.2.3-.5.2a11.2,11.2,0,0,0-2.6-.8l-1.2-.2a.3.3,0,0,1-.3-.3V81.9Z"/><path class="cls-12" d="M64.3,91.7c-.1,1.6,0,3.3-.1,4.9s-.1.4-.3.4a18.6,18.6,0,0,0-3.4.7l-2.4,1.1-1.8.9-.8.5-1,.9c-.4.3-.6.3-.9,0l-1.9-1.9c-2.3-2.3-4.5-4.6-6.8-6.8L40.5,88l-1.8-1.9c-.4-.4-.4-.4.1-.8a34.8,34.8,0,0,1,6.1-4.8,24.3,24.3,0,0,1,3.2-1.8l.8-.3c.3,0,.4,0,.5.3s1.4,3.2,2,4.8c1.4,3.1,2.7,6.2,4,9.4.1.3.2.3.5.1a30.3,30.3,0,0,1,5.9-1.6,6,6,0,0,1,2.3-.1C64.3,91.3,64.4,91.5,64.3,91.7Z"/><path class="cls-12" d="M93.8,113.5H91.4c-.4,0-.4-.1-.5-.4a18.6,18.6,0,0,0-.6-4.8,11.7,11.7,0,0,0-1.8-4.1c-.1-.3-.3-.3-.5-.2l-6.3,2.6h-.1c-.5.2-.6.2-.8-.3a11.6,11.6,0,0,0-3-3.9,30.7,30.7,0,0,0-2.9-2.4l-.6-.4c-.5-.1-.7-.5-.9-.8s-.1-.3,0-.5l1.3-3.7a2.2,2.2,0,0,1,.5-.8c.2-.2.3-.2.5-.1a22.2,22.2,0,0,1,5.2,3.4,8.8,8.8,0,0,1,1.2,1.5c.2.2.3.2.5,0,1.8-1.7,3.6-3.4,5.3-5.2h0c.5-.4.6-.4,1,.1a35.3,35.3,0,0,1,4.6,6.8,24.2,24.2,0,0,1,2.9,8.7,25.3,25.3,0,0,1,.3,3.8c0,.5-.1.6-.5.6H93.8Z"/><path class="cls-12" d="M34.2,111.5a20.3,20.3,0,0,1,1.5-7.3.4.4,0,0,1,.1-.3c.2-.4.3-.4.7-.3l4.7,2.1,1.7.7c.2.1.3,0,.4-.2a39,39,0,0,1,2.8-4.9A10,10,0,0,1,48,99.1c.2-.3.4-.2.7,0s1.7,1.8,2.5,2.7l1,.9c.1.2.1.2,0,.4a11.5,11.5,0,0,0-3.7,6.9,24.9,24.9,0,0,0-.3,6.7,18.8,18.8,0,0,0,.6,3.1c0,.1,0,.3-.2.3L44.5,122l-.5.2c-.3.2-.6,0-.8-.3l-.3-.9a20.9,20.9,0,0,1-.8-4.9,24.5,24.5,0,0,0-.2-2.7c0-.2-.1-.2-.2-.2H34.6c-.3,0-.3,0-.3-.3A9.7,9.7,0,0,1,34.2,111.5Z"/><path class="cls-12" d="M66.8,125.9a1.5,1.5,0,0,1-1.1-.3.9.9,0,0,1-.4-.6v-.4c-.2-.4-.3-.8-.5-1.3a6.9,6.9,0,0,0-.5-1.3c-.4-1-.7-2-1.1-3.1s-.7-1.8-1-2.8-.5-1.3-.7-2-.1-.7.4-.8h1c.4,0,.6.3.8.6s.4,1.5.7,2.2a.9.9,0,0,1,.1.5l.3.7a5,5,0,0,1,.5,1.3c.3.8.5,1.7.8,2.6a.8.8,0,0,1,.2.5,1.9,1.9,0,0,0,.2.7c.1.1.2.2.3.1l.3-.2a17.6,17.6,0,0,1,1-3,3.6,3.6,0,0,1,.4-1.1,17.2,17.2,0,0,1,.7-2.1L70,114c.2-.5.5-.8,1-.7h.8c.3,0,.4.2.3.4s0,.3-.1.4-1,3-1.6,4.5a11.7,11.7,0,0,0-.9,2.4c-.3,1-.8,1.9-1.1,2.9s-.3.9-.4,1.3a1,1,0,0,1-1,.6C67,125.8,66.9,125.9,66.8,125.9Z"/><path class="cls-12" d="M57.2,113.2h.9a2.3,2.3,0,0,1,1.4.4c.2.1.3.2.3.4s.1.9.1,1.3-.2.4-.5.3l-.5-.2a4,4,0,0,0-3.4-.1,1.4,1.4,0,0,0-.7,1.1,1.6,1.6,0,0,0,.9,1.5l2.1,1.2A4.5,4.5,0,0,1,60,121a3.3,3.3,0,0,1,.4,2.4,3.6,3.6,0,0,1-3.1,2.5l-.6.2a3.9,3.9,0,0,1-2.4-.3l-.6-.2a1,1,0,0,1-1.1-1.1v-.9q0-.6.6-.3l.6.3a5.8,5.8,0,0,0,2.9.6,3.7,3.7,0,0,0,1.4-.7h.1a2.2,2.2,0,0,0-.2-1.8,6.7,6.7,0,0,0-1.4-.9,8.7,8.7,0,0,1-3.4-2.2l-.3-.5c-.1-.5-.4-.8-.3-1.3a3.6,3.6,0,0,1,2.3-3.2H55A4.1,4.1,0,0,1,57.2,113.2Z"/><path class="cls-12" d="M84.8,118.9a2.9,2.9,0,0,0-.1-1.3,5.8,5.8,0,0,0-1.2-2.5,5.4,5.4,0,0,0-1.6-1.4,3.6,3.6,0,0,0-2.1-.5H78.4a5.3,5.3,0,0,0-2.4.8,4.4,4.4,0,0,0-1.1.9,5.2,5.2,0,0,0-1.6,3.1,9.6,9.6,0,0,0,0,1.7v1.2a4.2,4.2,0,0,0,.5,2.2,5.3,5.3,0,0,0,2,2.2,6.2,6.2,0,0,0,3.8.9,6.5,6.5,0,0,0,1.3-.4l.7-.2a4.8,4.8,0,0,0,2.1-1.9l.2-.2a6.4,6.4,0,0,0,.8-1.9A7.5,7.5,0,0,0,84.8,118.9Zm-2.4,2.9a4,4,0,0,1-1.3,1.8,3.3,3.3,0,0,1-1.6.5,3.5,3.5,0,0,1-3.3-1.3,5.5,5.5,0,0,1-.9-2.8v-.4a1.2,1.2,0,0,1,.1-1c0-.3.1-.6.1-.9s.1-.2.1-.3a4.3,4.3,0,0,1,2.1-2.1,3.1,3.1,0,0,1,1.9-.2,3.7,3.7,0,0,1,3,2.7A6.8,6.8,0,0,1,82.4,121.8Z"/><path class="cls-12" d="M40.6,487.9a14.5,14.5,0,0,0,.9,2.5c-4.3,3.3-5.1,4-5.5,4.6a13.8,13.8,0,0,0-1.4-2.4,3,3,0,0,0,1.2-2.3v-7.4H32.9v-2.7h5.6v9.3Zm-2.9-9.2a26,26,0,0,0-3.7-3.8l1.8-1.7a27.3,27.3,0,0,1,3.9,3.6Zm17.5,1.7v2H40.3v-2h6v-1.1H41.7v-1.9h4.6v-.9H41v-2.1h5.3v-1.6h2.8v1.6h5.3v2.1H49.1v.9h4.6v1.9H49.1v1.1Zm-1.7,12.1c0,1.2-.2,1.9-1.1,2.3a9.2,9.2,0,0,1-3.7.4,7.5,7.5,0,0,0-.8-2.4h2.5c.3,0,.4-.1.4-.4v-.7H44.6v3.5H41.9V483.3H53.5Zm-8.9-7.1v1.2h6.2v-1.2Zm6.2,4.4v-1.3H44.6v1.3Z"/><path class="cls-12" d="M74.2,485.8v1.4h4v2.4h-4v2.6c0,1.4-.3,2.1-1.4,2.6a11.8,11.8,0,0,1-4.1.4c-.2-.8-.7-1.9-1-2.7h3c.4,0,.5-.1.5-.4v-2.6H64.1a19.6,19.6,0,0,1,2.9,2.8l-2.2,1.8a15.3,15.3,0,0,0-3.6-3.6l1.2-1H58v-2.4H71.2v-1.4H57.1v-2.4h9.4V482h-7v-2.3h7v-1.2h1.4l-1.4-.8.9-.9H64.2a9.8,9.8,0,0,1,.7,1.6l-2.4,1a24.9,24.9,0,0,0-1.1-2.6h-.3a22.8,22.8,0,0,1-2.2,2.8,12.5,12.5,0,0,0-2.4-1.6,13.9,13.9,0,0,0,3.8-5.4l2.8.7-.6,1.2h5.2v2a11.8,11.8,0,0,0,2.3-3.9l2.7.7a6.1,6.1,0,0,1-.5,1.2h6.6v2.3h-4l1,1.6-2.5,1a18.7,18.7,0,0,0-1.5-2.6h-.9a15.6,15.6,0,0,1-1.4,1.9v1h7.2V482H69.5v1.4h9.4v2.4Z"/><path class="cls-12" d="M100.2,482.8v1.9h2.9v2.6h-2.9v4.9c0,1.4-.2,2.1-1.2,2.6a11.5,11.5,0,0,1-4.1.4,9.5,9.5,0,0,0-.9-2.7,13.5,13.5,0,0,0,2.9,0c.4,0,.5,0,.5-.4v-4.8H88.1v-2.6h9.3v-1.9H87.9v-2.3a16.7,16.7,0,0,1-1.2,1.6v13.1H84v-10a19.9,19.9,0,0,1-2.2,2,19.4,19.4,0,0,0-1.3-3,21.2,21.2,0,0,0,5.8-6.1l2.5,1.1a3.6,3.6,0,0,0-.7,1h6v-2.1H89.2v-2.6h4.9v-2.6H97v2.6h5.1v2.6H97v2.1h6.3v2.6Zm-11.8-8.9a22.4,22.4,0,0,1-6.3,6,14.9,14.9,0,0,0-1.4-2.4,16.2,16.2,0,0,0,5-4.7Zm3.4,13.5a18.7,18.7,0,0,1,2.8,4.1l-2.5,1.4a16,16,0,0,0-2.6-4.2Z"/><path class="cls-12" d="M55.2,508.2v2.7H38.4c-.1,4-.7,9.7-3.4,13.2a21.2,21.2,0,0,0-2.4-2c2.6-3.3,2.8-8.3,2.8-11.9v-6.6a103.5,103.5,0,0,0,15.9-1.9l2.4,2.3a88.6,88.6,0,0,1-15.3,2v2.2Zm-15.6,5.3h14v10.4H50.5v-1h-8V524H39.6Zm2.9,2.7v4.1h8v-4.1Z"/><path class="cls-12" d="M64.5,513.2a9.2,9.2,0,0,0,.1,2.4c-5.4,1.5-6.4,1.8-6.9,2.2a11.9,11.9,0,0,0-.8-2.2,4.9,4.9,0,0,0,1.8-1.6l1.8-2.5c-2.1.2-2.7.3-3,.5a10.4,10.4,0,0,0-.9-2.4c.5-.1.9-.6,1.4-1.4a26.2,26.2,0,0,0,3-6.6l2.4,1.1a30.9,30.9,0,0,1-3.4,6.5h1.9l1.3-2.6,2.1,1.3a40.3,40.3,0,0,1-3.9,6.2Zm.4,6.4-7.4,3.1-.6-2.7,7.5-2.6Zm7.9-1.7c-.9,2.2-2.8,4.5-6.6,6.2a8.3,8.3,0,0,0-1.7-2.1,10.7,10.7,0,0,0,5.3-4.1H65.1v-2.5H68a14.6,14.6,0,0,0-2.7-2l1.3-1.3a18.4,18.4,0,0,1,3.1,2l-1.1,1.3h2.2a12.1,12.1,0,0,0,.3-2.5V512L70,513.4a13.4,13.4,0,0,0-2.9-2l1.1-1.4a16,16,0,0,1,2.9,1.8v-1.4h2.6v2.5a22.9,22.9,0,0,1-.2,2.5h5v2.5Zm2.3-5.7a20.6,20.6,0,0,0,.7-2.5H65.6v-2.4h4.9v-1.5h-4v-2.3h4v-1.9h2.8v1.9h4.2v2.3H73.3v1.5H77l1.8.4a39.6,39.6,0,0,1-1.5,5.1Zm-1,6a27.6,27.6,0,0,1,5.1,4.1L77.4,524a32.4,32.4,0,0,0-5-4.3Z"/><path class="cls-12" d="M86.6,519.2l1.3.8c1.6,1,3.8,1.1,6.4,1.1s6.5-.2,9-.5a8.3,8.3,0,0,0-.7,2.7l-8.4.2c-3,0-5-.2-6.6-1.2s-1.8-1.3-2.3-1.3-1.9,1.4-2.9,2.9l-1.8-2.4a11.5,11.5,0,0,1,3.3-2.4v-5.7H80.8v-2.7h5.8Zm-1.3-10.9a26.4,26.4,0,0,0-4.1-4.1l1.9-1.7a33.1,33.1,0,0,1,4.3,3.8ZM91.4,520H88.7V507.6h5.2l-3.4-1.5,1.8-1.5,3.1,1.2a13.7,13.7,0,0,0,2-1.3H88.9v-2.2h11.6l1.7,1.4a31.5,31.5,0,0,1-4.4,3.3l1.3.6h3.1v9.9c0,1.2-.2,1.7-1,2.1a7.1,7.1,0,0,1-3.2.4,8.1,8.1,0,0,0-.7-2.2h1.8c.3,0,.4-.1.4-.3v-1.1H96.7v3.5H94.1v-3.5H91.4Zm0-10.3V511h2.7v-1.3Zm2.7,4.6v-1.4H91.4v1.4Zm5.4-4.6H96.7V511h2.8Zm0,4.6v-1.4H96.7v1.4Z"/><path class="cls-12" d="M112.1,513.8c-.1.3-.1.6-.2.9s3.9,4.3,4.5,5.1l-1.9,2.4a51.2,51.2,0,0,0-3.3-4.6,12.4,12.4,0,0,1-4.6,6.3,8,8,0,0,0-2-2.1,11.6,11.6,0,0,0,4.6-8H105v-2.7h4.4v-3.8h-1a13.7,13.7,0,0,1-1.6,3.2,13.7,13.7,0,0,0-2.3-1.7,18,18,0,0,0,2.7-7.2l2.7.5a10.2,10.2,0,0,1-.6,2.5h6.4v2.7h-3.4v3.8h3.9v2.7ZM126,503.7V523h-2.9v-1.4h-3.5v1.7h-2.7V503.7Zm-2.9,15.2V506.3h-3.5v12.6Z"/><path class="cls-12" d="M136.8,519.9a3.9,3.9,0,1,1-3.9-3.9A3.9,3.9,0,0,1,136.8,519.9Zm-1.8,0a2.1,2.1,0,0,0-2.1-2.2,2.2,2.2,0,0,0-2.2,2.2,2.1,2.1,0,0,0,2.2,2.1A2.1,2.1,0,0,0,135,519.9Z"/></g></svg>