<svg xmlns="http://www.w3.org/2000/svg" viewBox="0 0 95.4 40"><defs><style>.cls-1{fill:#ccc;}</style></defs><title>提交不可用</title><g id="图层_2" data-name="图层 2"><g id="图层_1-2" data-name="图层 1"><path class="cls-1" d="M6,22.3v5.6c0,1.3-.2,2-.9,2.4a5.9,5.9,0,0,1-3.3.6,12.5,12.5,0,0,0-.7-2.6H3c.3,0,.5-.1.5-.5V23l-2.3.7L.6,20.9l2.9-.7V16H.9V13.3H3.5V8.8H6v4.5H8.4V16H6v3.5l2.2-.6.4,2.6Zm11,6h6.5a7.3,7.3,0,0,0-.8,2.5H18.5c-3.1,0-5.5-.6-7.2-3.5a10.1,10.1,0,0,1-2.5,3.8,8.7,8.7,0,0,0-2.1-1.7c2-1.6,3-4.3,3.4-7.6l2.5.4a20,20,0,0,1-.4,2.4,5.2,5.2,0,0,0,2.1,2.8V21.2H8.6V18.9H22.8v2.3H17v2.1h4.6v2.3H17Zm4.6-10.5H9.8V9.5H21.6Zm-2.7-6.3H12.4v1.2h6.5Zm0,3.1H12.4v1.2h6.5Z" transform="translate(-0.6)"/><path class="cls-1" d="M42,19.8a15.9,15.9,0,0,1-3.8,5.6,21.3,21.3,0,0,0,8.7,3.1,11.7,11.7,0,0,0-1.7,2.6A22.8,22.8,0,0,1,36,27.3a26.6,26.6,0,0,1-9.2,3.9,12.8,12.8,0,0,0-1.7-2.6,24.1,24.1,0,0,0,8.8-3.2,20.6,20.6,0,0,1-3.5-5.5l2.6-.8a14.1,14.1,0,0,0,3,4.6,12.1,12.1,0,0,0,3.1-4.8Zm-8.1-3.9a25.6,25.6,0,0,1-6.3,5.6l-2.3-2.1a20.8,20.8,0,0,0,5.9-4.6Zm12.6-1.3h-21V11.8h9.3c-.3-.8-.8-1.6-1.2-2.4l2.7-.9a15.5,15.5,0,0,1,1.8,3.3h8.4Zm-6,.1a36.5,36.5,0,0,1,6.2,5l-2.4,1.9a35.8,35.8,0,0,0-6-5.3Z" transform="translate(-0.6)"/><path class="cls-1" d="M76,8.8A11.3,11.3,0,1,1,64.8,20,11.3,11.3,0,0,1,76,8.8M76,0A20,20,0,1,0,96,20,20.1,20.1,0,0,0,76,0Z" transform="translate(-0.6)"/></g></g></svg>