<svg xmlns="http://www.w3.org/2000/svg" viewBox="0 0 142.4 150.7"><defs><style>.cls-1{fill:#fff;}.cls-2{fill:#ff9000;}</style></defs><title>title4</title><g id="图层_2" data-name="图层 2"><g id="图层_1-2" data-name="图层 1"><path class="cls-1" d="M34.9,28.3H28.7a44.8,44.8,0,0,1,6.1,3.6l-2.7,3a53,53,0,0,0-7.4-4.7l2-1.9H20.6L23,30.1a43.2,43.2,0,0,1-9.1,4.6,16.6,16.6,0,0,0-2.6-2.8,37.2,37.2,0,0,0,7.2-3.6H12.6V26.5L2.5,30.4.9,26.1,5,24.9V13.5H1.4v-4H5V1.7H9V9.5h3.7v4H9V23.6l3.3-1.1.4,2.2h2.7V9.2h5.2l.3-1.8H13.8V4h7.6c.1-1,.2-1.9.2-2.7h4.6A23.8,23.8,0,0,1,25.7,4H34V7.4H24.8c-.1.6-.3,1.2-.4,1.8h7.7V24.7h2.8ZM19.1,11.9v1.5h9.1V11.9Zm9.1,3.7H19.1v1.5h9.1Zm-9.1,5.2h9.1V19.3H19.1Zm0,3.9h9.1V23.1H19.1Z" transform="translate(0 -1.3)"/><path class="cls-1" d="M69.6,2.8v8.1H65.1V6.8H42.7v4.1H38.4V2.8ZM59.1,27.4H39.2V23.5H59.1Zm7.4-10.1s-.1,1.2-.2,1.8c-.8,8.7-1.6,12.4-3,13.8a5.5,5.5,0,0,1-3.7,1.6,58.9,58.9,0,0,1-6,0,7.7,7.7,0,0,0-1.4-4c2.4.2,4.7.2,5.8.2a2.9,2.9,0,0,0,1.7-.4c.9-.8,1.6-3.6,2.1-9.3H43.3A136,136,0,0,0,46.2,7.3l4.3.4L50,10.6H64.8v3.7H49.2l-.6,3Z" transform="translate(0 -1.3)"/><path class="cls-1" d="M12.7,45.8a70.4,70.4,0,0,1-3.4,7.4V77.9H5.1V59.5a24.3,24.3,0,0,1-2.4,3A21.3,21.3,0,0,0,.4,58,37,37,0,0,0,8.6,44.5Zm12.7,9V73.2c0,2.1-.3,3.3-1.6,4s-3,.8-5.3.8A18.4,18.4,0,0,0,17,73.7h3.5c.5,0,.7-.2.7-.6V54.8H17a28.7,28.7,0,0,1-3.4,5.5,23,23,0,0,0-3.4-2.8c2.7-3.1,4.8-8,6.1-13l4.1,1a46.4,46.4,0,0,1-1.6,5.3h13l3,.6c-.4,2.9-1,6.2-1.5,8.3L29.7,59c.1-1.1.4-2.6.5-4.2Zm-6,6.5a34.7,34.7,0,0,1-4.9,12A22.1,22.1,0,0,0,10.9,71c2-2.5,3.5-6.6,4.4-10.6Zm11.1-1.2a42.3,42.3,0,0,1,3.9,11.7l-4.1,1.4a48.2,48.2,0,0,0-3.6-11.9Z" transform="translate(0 -1.3)"/><path class="cls-1" d="M69.9,49.9v2C69.4,68,69,73.7,67.5,75.6a5.1,5.1,0,0,1-3.4,2,50.7,50.7,0,0,1-5.7.1A8.7,8.7,0,0,0,57,73.5c2.3.2,4.4.2,5.4.2a2.3,2.3,0,0,0,1.6-.6c1-1.2,1.5-6.6,1.9-19.3H58.2A33.1,33.1,0,0,1,55,59.5a26,26,0,0,0-2.8-2V74.3H42.6v2.6H38.7V50.2h4.1a30.7,30.7,0,0,0,1-5.8l4.7.6c-.6,1.8-1.2,3.6-1.8,5.2h5.5V56a38.3,38.3,0,0,0,4.9-11.6l4.1,1c-.4,1.5-.9,3-1.4,4.5Zm-21.6,4H42.6v5.9h5.7Zm0,16.6v-7H42.6v7Zm12-1.9a65.2,65.2,0,0,0-5-8.3l3.3-1.9a84,84,0,0,1,5.3,7.9Z" transform="translate(0 -1.3)"/><path class="cls-1" d="M21.8,89.4l-1.1,1.7a41.6,41.6,0,0,0,14.6,9.7,13.8,13.8,0,0,0-3.2,4,46.6,46.6,0,0,1-14-10.4,41.7,41.7,0,0,1-14,10.4,17.4,17.4,0,0,0-3.2-4.2c6.9-2.5,13.4-7,17.1-13Zm-6.1,9.8h4.5v22H15.7Z" transform="translate(0 -1.3)"/><path class="cls-1" d="M56.1,87.6c0,1.5-.1,3.5-.2,5.6.5,4.9,2.7,18.5,15.2,24a13,13,0,0,0-3.1,3.7c-8-3.8-12-10.8-14.1-17-2,6.3-5.7,12.8-13.2,17.2a15.1,15.1,0,0,0-3.6-3.5c14.6-7.8,13.9-23.9,14.1-30Z" transform="translate(0 -1.3)"/><path class="cls-1" d="M84.3,88.9a43.7,43.7,0,0,1-2.7,6.4v26.1H77.8V102c-.9,1.2-1.8,2.4-2.7,3.4a21.2,21.2,0,0,0-2.2-4.2,38.4,38.4,0,0,0,7.6-13.5Zm22.1,4.3v3.5H83.3V93.2H93.6a24.9,24.9,0,0,0-2.2-4.3L95,87.5a28.8,28.8,0,0,1,2.6,4.8l-2,.9Zm-21.1,16h19v11.9h-3.8v-1H88.9v1.1H85.3Zm18.6-7.3H85.8V98.6h18.1Zm-18.1,1.9h18.1v3.3H85.8Zm3.1,8.8v4h11.6v-4Z" transform="translate(0 -1.3)"/><path class="cls-1" d="M109.2,117.6a43.8,43.8,0,0,0,3.4-7.6l3.8,1.6a56.7,56.7,0,0,1-3.3,7.9Zm15.7-9.2H114.6V90.8h8.3c.3-1.2.7-2.5.9-3.6l5.2.7c-.5,1.1-1.1,2-1.6,2.9h9.9v17.6H126.9a21.8,21.8,0,0,1,3.8,4.7l-3.5,2.1a23,23,0,0,0-4.3-5.7Zm5.1,8.3c1.7,0,2-.5,2.2-3.9a10.9,10.9,0,0,0,3.9,1.5c-.5,5.1-1.8,6.3-5.8,6.3h-6.8c-5.1,0-6.4-1.2-6.4-5v-5h4.4v4.9c0,1.1.3,1.2,2.4,1.2Zm-11.3-21h14.2V94H118.7Zm0,4.7h14.2V98.8H118.7Zm0,4.8h14.2v-1.7H118.7Zm19.8,4.1a31,31,0,0,1,3.9,7.7l-4.1,1.8a30.1,30.1,0,0,0-3.6-7.9Z" transform="translate(0 -1.3)"/><rect class="cls-2" y="134.7" width="64" height="16"/></g></g></svg>